<?xml version="1.0" standalone="no"?>
<!DOCTYPE svg PUBLIC "-//W3C//DTD SVG 20010904//EN"
 "http://www.w3.org/TR/2001/REC-SVG-20010904/DTD/svg10.dtd">
<svg version="1.0" xmlns="http://www.w3.org/2000/svg"
 width="1080.000000pt" height="1197.000000pt" viewBox="0 0 1080.000000 1197.000000"
 preserveAspectRatio="xMidYMid meet">

<g transform="translate(0.000000,1197.000000) scale(0.100000,-0.100000)"
fill="#000000" stroke="none">
<path d="M0 5985 l0 -5985 5400 0 5400 0 0 5985 0 5985 -5400 0 -5400 0 0
-5985z m5895 5459 c498 -51 908 -143 1345 -301 69 -25 149 -56 178 -69 29 -13
55 -24 59 -24 11 0 169 -73 308 -142 757 -378 1421 -929 1920 -1593 96 -128
275 -389 275 -402 0 -2 12 -22 26 -45 79 -125 314 -569 314 -593 0 -3 23 -58
51 -123 45 -105 73 -179 137 -367 90 -262 175 -637 217 -955 74 -565 72 -1029
-5 -1555 -23 -153 -63 -368 -79 -416 -6 -19 -24 -91 -41 -161 -49 -201 -145
-479 -269 -773 -5 -11 -46 -96 -91 -190 -127 -264 -289 -537 -459 -775 -64
-90 -244 -322 -276 -356 -5 -6 -45 -51 -87 -100 -73 -83 -369 -381 -448 -450
-144 -125 -314 -260 -445 -356 -100 -72 -384 -254 -412 -265 -10 -3 -43 -22
-73 -41 -82 -52 -385 -202 -545 -270 -361 -152 -775 -276 -1125 -336 -52 -9
-115 -21 -140 -26 -64 -13 -304 -37 -510 -51 -298 -20 -866 1 -1100 41 -269
45 -444 83 -660 142 -742 205 -1418 560 -2020 1062 -164 137 -482 450 -616
605 -216 252 -454 589 -604 856 -88 157 -218 413 -250 496 -12 30 -28 68 -35
84 -54 117 -159 411 -201 560 -76 270 -154 631 -170 790 -3 22 -12 103 -22
180 -14 112 -17 223 -17 560 0 418 2 449 41 750 49 374 183 874 326 1220 27
66 60 147 73 180 65 170 276 554 440 805 66 101 213 310 224 320 4 3 26 32 50
65 24 33 49 65 55 70 6 6 52 57 101 115 139 162 425 446 569 565 27 22 58 48
69 58 135 116 325 254 547 395 541 345 1131 587 1765 723 49 11 101 22 115 25
14 3 48 10 75 15 69 12 575 68 660 73 146 8 606 -4 760 -20z"/>
<path d="M5090 11374 c-19 -2 -91 -8 -160 -14 -207 -17 -557 -70 -690 -104
-476 -125 -674 -190 -965 -319 -232 -102 -409 -194 -635 -330 -314 -188 -652
-450 -925 -717 -222 -218 -368 -380 -507 -565 -325 -432 -552 -836 -756 -1345
-50 -125 -150 -443 -192 -609 -66 -266 -106 -500 -142 -841 -19 -187 -16 -720
6 -940 30 -305 91 -651 151 -865 14 -50 32 -115 41 -145 55 -195 196 -567 290
-765 213 -450 513 -902 843 -1270 87 -97 398 -401 490 -478 140 -118 289 -236
370 -292 40 -27 91 -64 114 -81 165 -121 526 -324 792 -444 456 -206 887 -333
1410 -414 481 -76 1053 -72 1590 10 168 25 453 86 590 125 38 11 86 25 105 30
277 78 736 268 988 408 336 186 650 397 897 605 207 172 453 419 650 650 28
32 61 70 74 85 100 107 381 521 516 761 49 85 98 171 111 190 12 19 31 58 42
85 11 28 45 111 77 185 31 74 68 167 81 205 154 435 237 755 294 1137 70 461
70 1045 0 1523 -69 470 -216 1002 -371 1343 -16 35 -29 65 -29 67 0 7 -101
222 -136 290 -49 93 -226 389 -236 393 -4 2 -8 7 -8 12 0 11 -164 250 -232
339 -265 343 -552 641 -883 913 -635 522 -1430 904 -2232 1072 -389 82 -735
117 -1136 114 -139 0 -268 -3 -287 -4z m517 -411 c3 -10 23 -58 43 -108 20
-49 56 -139 80 -200 23 -60 69 -177 101 -258 32 -81 59 -150 59 -152 0 -3 -59
-5 -130 -5 l-130 0 -16 38 c-9 20 -20 44 -24 52 -6 12 -34 15 -155 15 l-148 0
-15 -45 c-8 -25 -20 -48 -26 -52 -11 -7 -209 -7 -238 0 -13 3 -14 8 -7 21 5 9
34 77 64 151 31 74 60 144 65 155 18 41 93 221 105 255 7 19 25 61 39 93 l26
57 150 0 c134 0 151 -2 157 -17z m1320 -169 c94 -28 81 -8 124 -201 13 -57 27
-103 32 -103 8 0 134 95 197 149 19 17 42 31 50 31 19 0 233 -60 242 -69 3 -3
-96 -81 -220 -173 l-227 -167 -49 -135 c-27 -75 -49 -136 -50 -136 -11 1 -229
70 -233 74 -3 2 16 61 42 130 56 148 58 123 -31 416 -30 102 -58 197 -61 212
l-5 28 53 -16 c30 -8 91 -26 136 -40z m-2847 -25 c85 -47 133 -143 116 -233
-4 -19 -25 -54 -47 -80 -49 -56 -58 -41 109 -189 63 -55 110 -103 105 -107 -4
-4 -63 -22 -130 -40 l-122 -33 -78 70 c-43 39 -94 87 -112 107 -38 39 -47 41
-103 25 -27 -7 -38 -16 -38 -28 0 -11 17 -69 39 -130 21 -61 36 -113 32 -115
-7 -4 -83 -26 -171 -50 -30 -8 -58 -12 -62 -8 -3 4 -18 41 -31 82 -14 41 -66
194 -116 339 -50 145 -91 268 -91 272 0 5 8 9 17 9 10 0 47 9 83 20 36 11 144
43 240 70 206 58 283 62 360 19z m-1497 -855 c12 -4 12 -13 0 -67 -18 -76 -37
-119 -69 -151 -32 -31 -101 -64 -154 -72 -32 -5 -52 -19 -100 -68 -64 -65 -70
-80 -42 -95 14 -8 35 -2 88 25 64 33 74 35 138 31 56 -4 72 -9 93 -30 l26 -25
-49 -52 c-27 -28 -66 -62 -89 -75 -50 -29 -136 -47 -195 -40 -25 2 -73 7 -107
11 l-61 6 -57 -58 c-50 -52 -85 -108 -85 -135 0 -15 37 -10 50 6 7 8 18 15 25
15 7 0 34 10 60 21 59 26 117 26 175 0 l43 -19 -51 -50 c-27 -27 -72 -60 -99
-74 -48 -25 -171 -48 -259 -48 -42 0 -46 -3 -104 -72 -85 -104 -81 -124 15
-78 87 42 154 55 197 37 18 -8 41 -21 52 -29 17 -13 15 -17 -33 -60 -28 -26
-72 -60 -96 -76 -56 -37 -180 -67 -240 -58 -57 9 -88 -5 -111 -49 -10 -20 -29
-56 -41 -79 -12 -22 -22 -47 -22 -54 -2 -27 29 -22 72 11 25 19 66 43 90 52
41 15 51 16 102 3 l56 -14 -46 -57 c-47 -57 -129 -118 -175 -131 -14 -4 -58
-16 -99 -26 -83 -21 -81 -20 -111 -75 -13 -22 -33 -59 -46 -82 -26 -45 -31
-73 -13 -73 6 0 38 20 72 44 34 24 85 52 113 61 47 15 55 15 88 1 33 -14 36
-18 26 -36 -6 -11 -15 -20 -20 -20 -5 0 -12 -10 -16 -22 -9 -31 -107 -121
-165 -153 -26 -14 -71 -30 -100 -35 -30 -6 -59 -16 -66 -23 -17 -17 -73 -159
-67 -169 10 -16 31 -7 65 28 41 43 98 74 137 74 33 0 92 -18 92 -29 0 -13
-106 -149 -141 -179 -40 -35 -118 -77 -164 -88 -43 -10 -64 -31 -71 -73 -4
-20 -12 -47 -19 -61 -15 -31 -26 -96 -18 -115 6 -17 12 -12 57 49 68 91 134
132 195 122 20 -3 42 -7 49 -8 18 -2 15 -21 -8 -46 -11 -12 -20 -26 -20 -32 0
-5 -4 -10 -10 -10 -5 0 -10 -6 -10 -12 -1 -11 -61 -86 -97 -121 -44 -42 -87
-69 -131 -82 -29 -9 -55 -22 -59 -30 -3 -8 -10 -12 -16 -8 -6 4 -8 0 -4 -9 3
-9 -1 -27 -8 -42 -8 -15 -17 -53 -21 -85 -8 -72 7 -87 37 -37 12 20 25 33 31
30 5 -3 8 0 6 8 -1 7 7 27 19 44 43 60 183 102 183 55 0 -11 -6 -26 -13 -33
-7 -7 -14 -17 -15 -23 -7 -32 -27 -73 -34 -69 -4 3 -8 -5 -8 -17 0 -23 -89
-119 -110 -119 -6 0 -21 -9 -32 -20 -14 -13 -29 -18 -42 -14 -17 4 -18 3 -6
-5 12 -8 9 -12 -18 -17 -22 -5 -33 -13 -36 -28 -2 -11 -9 -48 -15 -82 -14 -75
-14 -151 -1 -159 6 -3 10 -1 10 5 0 6 5 8 12 4 7 -4 8 -3 4 4 -8 14 50 106 90
144 27 25 92 47 140 48 21 0 21 -1 -6 -57 -15 -32 -42 -89 -59 -126 -18 -38
-39 -71 -47 -74 -7 -3 -12 -8 -10 -12 6 -9 -42 -45 -63 -48 -60 -9 -83 -17
-90 -32 -5 -9 -10 -73 -10 -143 -2 -157 8 -164 64 -46 53 108 101 158 155 158
38 0 39 -1 30 -25 -5 -13 -14 -55 -20 -92 -25 -150 -63 -208 -172 -263 -26
-13 -50 -30 -53 -39 -10 -26 6 -170 21 -182 11 -9 17 -4 29 27 42 105 74 149
122 169 31 13 93 21 93 12 0 -2 -6 -26 -14 -53 -8 -27 -14 -56 -14 -64 0 -29
-13 -83 -27 -110 -8 -15 -12 -30 -8 -33 3 -4 -9 -28 -26 -56 -30 -45 -49 -59
-110 -76 -22 -7 -23 -9 -15 -74 10 -87 12 -112 13 -137 1 -20 28 -41 38 -30 3
2 9 23 14 45 15 66 56 147 85 166 15 9 41 18 58 19 l31 1 -3 -60 c-4 -59 -24
-163 -41 -208 -13 -33 -69 -90 -81 -82 -6 4 -9 2 -8 -4 2 -5 -6 -16 -17 -24
-19 -15 -19 -17 -3 -84 9 -37 20 -83 23 -101 11 -54 35 -37 54 39 22 89 61
145 107 154 20 3 42 9 50 12 12 4 14 -14 14 -106 0 -99 -3 -117 -25 -161 -27
-52 -103 -140 -123 -140 -17 0 -15 -22 8 -81 12 -28 18 -54 16 -57 -3 -3 1
-17 9 -31 8 -14 19 -39 25 -54 18 -50 35 -25 43 64 13 149 48 204 124 197 l38
-4 3 -122 c4 -151 -9 -199 -73 -265 -25 -25 -45 -53 -45 -61 0 -9 15 -52 32
-96 24 -59 38 -80 51 -80 12 0 17 6 16 18 -3 20 8 102 22 155 6 24 14 35 21
31 7 -5 9 -2 5 9 -5 13 3 22 31 35 51 25 74 23 80 -8 3 -14 5 -79 6 -145 1
-113 -1 -123 -27 -175 -16 -30 -37 -64 -47 -75 -18 -20 -18 -22 26 -113 24
-50 49 -92 54 -92 6 0 10 3 10 8 4 124 22 222 41 222 6 0 8 4 5 8 -5 9 63 52
81 52 16 0 47 -160 47 -243 0 -72 -3 -89 -28 -134 -16 -29 -33 -50 -39 -46 -6
3 -7 1 -3 -5 3 -6 2 -13 -4 -17 -18 -11 -11 -36 25 -85 19 -26 35 -51 35 -55
0 -14 52 -76 58 -70 3 3 7 56 7 118 1 122 12 153 61 175 41 19 43 18 59 -58 2
-8 9 -35 15 -60 32 -126 38 -221 14 -239 -11 -7 -54 -68 -54 -75 0 -6 24 -37
48 -62 7 -8 11 -14 8 -14 -3 0 5 -12 19 -28 98 -110 113 -158 49 -160 -30 -1
-38 4 -55 32 -11 19 -27 37 -36 40 -9 4 -13 9 -10 13 4 3 -1 13 -11 22 -10 9
-31 33 -46 53 l-28 38 -82 0 c-47 0 -100 7 -125 16 -53 18 -164 82 -205 117
l-29 25 27 25 c59 55 169 41 283 -35 49 -33 53 -34 53 -10 0 27 -128 212 -148
213 -9 0 -51 2 -92 3 -85 4 -132 23 -195 80 -22 20 -43 36 -46 36 -4 0 -18 17
-33 39 -24 34 -25 41 -15 65 10 21 19 26 49 26 41 0 130 -36 188 -75 42 -29
58 -31 66 -9 3 8 2 13 -3 10 -5 -3 -17 11 -26 32 -10 20 -21 39 -25 42 -15 11
-40 71 -34 82 4 6 3 8 -3 5 -5 -3 -17 3 -26 14 -10 11 -22 17 -28 13 -18 -11
-182 17 -234 40 -43 20 -56 33 -98 101 -47 77 -47 79 -29 97 10 10 35 21 55
25 46 7 147 -40 195 -91 19 -20 37 -36 42 -36 22 0 17 25 -23 112 -24 51 -48
104 -54 117 -8 20 -17 25 -49 26 -47 2 -169 39 -205 63 -15 9 -51 48 -82 86
-48 60 -54 72 -45 92 15 33 60 49 99 35 42 -15 119 -64 149 -96 26 -27 50 -33
50 -12 0 8 -8 38 -19 68 -10 30 -19 57 -19 62 -5 27 -33 77 -44 78 -57 3 -189
50 -240 85 -46 32 -102 100 -94 113 4 5 2 11 -3 13 -5 1 -12 20 -16 40 -7 34
-5 39 20 48 14 5 39 10 54 10 38 0 124 -45 173 -91 23 -21 45 -39 49 -39 11 0
19 29 10 34 -5 3 -11 23 -15 44 -3 22 -13 55 -21 75 -12 30 -21 37 -52 42
-110 16 -223 70 -223 106 0 6 -4 8 -8 5 -5 -3 -19 13 -31 34 -12 22 -33 53
-46 69 -14 15 -22 31 -18 35 3 3 -2 6 -12 6 -15 0 -15 2 -4 16 19 23 65 44 97
44 34 0 134 -48 126 -61 -3 -5 -2 -9 3 -8 18 4 45 -15 54 -37 8 -23 42 -33 53
-16 2 4 -2 36 -10 71 -8 35 -13 70 -10 77 3 7 1 16 -5 19 -5 4 -8 9 -5 13 2 4
0 16 -4 26 -6 17 -17 20 -81 21 -56 0 -81 5 -104 20 -50 33 -56 43 -84 129
-15 46 -35 96 -45 111 -19 29 -19 29 8 52 23 19 35 22 64 17 36 -6 102 -47
102 -63 0 -5 16 -28 35 -52 19 -24 35 -50 35 -57 0 -8 8 -12 18 -10 14 3 17
13 15 68 -3 84 -12 154 -21 160 -4 3 -40 17 -81 30 -101 33 -125 59 -179 195
-41 104 -43 117 -24 131 21 15 80 25 109 18 38 -10 122 -132 107 -156 -4 -6
-3 -8 3 -5 6 4 15 -5 22 -19 6 -14 17 -24 24 -21 8 3 12 40 14 133 l1 128 -66
37 c-37 21 -79 50 -93 66 -29 32 -56 98 -63 158 -3 22 -8 57 -12 78 -4 20 -5
37 -3 37 2 1 21 3 41 6 32 5 42 1 77 -31 23 -21 39 -41 36 -45 -3 -5 -1 -10 3
-12 5 -1 26 -33 46 -70 50 -91 61 -90 71 3 3 30 10 80 15 112 11 72 8 80 -35
96 -52 19 -128 98 -144 150 -16 57 -40 203 -34 217 6 16 77 26 105 15 39 -15
80 -78 108 -164 20 -63 36 -42 56 73 3 19 12 45 20 58 14 21 13 25 -13 50 -16
15 -39 34 -53 42 -65 41 -88 74 -109 154 -27 102 -28 165 -3 167 82 7 93 5
118 -28 13 -17 24 -38 24 -45 0 -8 7 -23 15 -34 8 -12 16 -34 19 -49 3 -16 12
-35 20 -44 19 -18 18 -19 46 109 24 112 25 139 5 146 -8 4 -12 11 -8 17 3 5 1
7 -4 4 -22 -14 -77 37 -95 88 -20 56 -51 242 -42 256 3 5 21 9 40 9 47 0 74
-29 125 -134 27 -57 47 -86 58 -86 12 0 25 27 50 99 18 54 31 107 29 117 -2
11 -21 27 -42 37 -60 28 -84 59 -100 129 -21 91 -19 174 5 226 26 53 57 57 92
10 21 -29 73 -150 92 -215 12 -43 31 -26 59 54 10 29 26 69 37 90 27 53 25 65
-26 124 -56 66 -75 126 -75 239 0 107 9 123 74 124 38 1 51 -4 66 -22 22 -26
39 -103 42 -184 3 -85 22 -83 66 10 20 42 42 83 49 90 23 23 15 66 -17 97 -48
46 -64 102 -57 195 4 44 13 93 22 109 8 17 15 41 15 56 0 23 3 25 48 25 26 0
55 -7 65 -14 30 -23 47 -97 40 -176 -5 -64 -4 -70 13 -70 11 0 24 12 32 29 7
16 23 40 35 53 35 39 67 82 67 89 0 4 -15 17 -33 28 -40 25 -77 119 -77 196 0
45 27 161 51 223 17 44 115 22 150 -34 19 -31 20 -41 11 -102 -5 -37 -14 -81
-20 -99 -8 -24 -7 -35 3 -43 10 -9 30 10 89 84 48 61 74 101 70 111 -3 8 -10
15 -14 15 -5 0 -18 26 -30 58 -40 106 -4 253 86 349 20 21 63 8 89 -27 28 -39
31 -76 10 -137 -24 -69 -30 -123 -13 -123 24 0 134 122 168 187 37 72 101 141
150 164 28 13 98 45 107 48 1 1 8 -1 16 -5z m5636 -206 c87 -22 168 -90 219
-186 38 -71 151 -185 171 -173 11 7 9 21 -10 82 -34 108 -32 150 9 192 39 40
53 41 83 6 48 -55 88 -145 103 -230 7 -37 -25 -162 -44 -174 -20 -12 -8 -35
61 -119 97 -116 121 -114 79 7 -24 69 -25 120 -3 158 26 44 107 74 138 51 6
-4 22 -46 38 -93 47 -148 30 -297 -39 -339 -40 -25 -41 -32 -11 -62 12 -13 42
-49 65 -80 58 -79 76 -78 66 5 -13 108 -10 139 19 172 16 19 35 27 73 32 50 5
51 5 57 -23 2 -16 15 -67 27 -113 33 -123 21 -177 -57 -262 l-23 -25 41 -80
c23 -43 49 -92 57 -107 23 -46 37 -27 43 64 12 156 45 202 128 179 21 -5 42
-18 45 -27 4 -9 6 -61 5 -116 -1 -87 -5 -105 -30 -155 -16 -31 -40 -70 -54
-86 -14 -16 -25 -34 -25 -40 0 -23 94 -226 104 -223 13 4 19 17 51 117 44 138
89 187 127 140 29 -36 41 -98 35 -190 -7 -106 -24 -140 -93 -186 -30 -20 -54
-41 -54 -46 0 -27 74 -208 85 -208 7 0 34 43 61 96 26 52 57 102 68 110 11 8
38 14 59 14 l38 0 -6 -57 c-10 -92 -34 -203 -50 -234 -8 -15 -35 -42 -59 -58
-24 -17 -46 -36 -48 -42 -4 -13 46 -221 57 -240 10 -16 21 3 41 71 33 113 75
155 144 144 l43 -7 -7 -76 c-12 -140 -51 -214 -139 -264 -36 -20 -38 -24 -34
-62 4 -43 25 -131 36 -154 13 -26 28 -23 35 6 8 35 47 116 61 125 5 4 6 8 1 8
-5 0 1 9 14 20 29 25 78 34 113 21 24 -9 28 -15 23 -39 -3 -15 -8 -52 -11 -82
-13 -108 -33 -156 -87 -210 -27 -27 -56 -50 -64 -50 -8 0 -22 -8 -33 -19 -18
-18 -17 -21 4 -137 16 -93 25 -120 38 -122 12 -3 19 5 23 27 4 16 14 38 23 48
10 10 21 30 24 43 4 14 24 44 46 68 33 36 45 42 78 42 22 0 42 -2 44 -5 6 -5
-15 -141 -30 -199 -14 -57 -38 -85 -120 -140 l-72 -49 2 -118 c2 -127 15 -163
40 -117 8 13 14 25 14 28 4 16 33 71 57 107 36 54 79 68 142 47 42 -15 46 -21
33 -54 -3 -8 -15 -46 -28 -85 -41 -133 -72 -167 -184 -208 l-70 -25 -8 -102
c-4 -57 -6 -109 -3 -117 9 -24 25 -14 47 30 12 23 25 44 28 47 4 3 18 20 31
39 26 37 100 75 129 66 10 -3 26 -14 36 -25 16 -18 16 -21 -4 -53 -11 -19 -21
-43 -21 -53 0 -25 -35 -119 -55 -151 -23 -35 -79 -55 -153 -56 -55 -1 -63 -3
-67 -21 -13 -66 -19 -102 -29 -179 -6 -47 20 -43 71 10 86 88 177 113 237 65
29 -22 28 -31 -5 -66 -15 -16 -36 -48 -48 -70 -27 -55 -95 -121 -116 -112 -9
3 -14 2 -11 -3 3 -5 -25 -16 -62 -26 -110 -28 -106 -24 -130 -116 -26 -97 -18
-120 25 -73 87 94 186 134 241 98 19 -13 22 -20 16 -52 -14 -77 -50 -125 -129
-176 -50 -32 -169 -76 -204 -76 -19 0 -31 -17 -38 -54 -2 -11 -7 -24 -12 -30
-5 -6 -12 -27 -15 -47 -3 -20 -8 -43 -12 -52 -3 -10 -3 -24 0 -33 5 -12 18 -5
63 36 104 93 166 109 219 59 l22 -21 -56 -78 c-31 -42 -70 -84 -87 -93 -76
-40 -134 -60 -180 -63 -49 -2 -75 -20 -75 -52 0 -14 -13 -46 -51 -128 -19 -41
-25 -84 -13 -84 4 0 28 20 55 45 66 62 146 100 191 91 19 -3 43 -14 52 -24 15
-17 13 -24 -27 -95 -38 -69 -47 -80 -97 -103 -66 -32 -149 -53 -210 -54 -43 0
-46 -2 -69 -45 -13 -25 -28 -45 -33 -45 -5 0 -6 -5 -2 -11 3 -6 3 -14 -2 -18
-11 -7 -44 -69 -44 -81 0 -5 9 -8 20 -7 11 1 20 4 20 7 0 7 53 37 132 76 62
31 91 30 117 -2 12 -15 21 -30 21 -33 0 -15 -134 -142 -174 -166 -33 -19 -62
-26 -132 -31 -74 -5 -92 -10 -107 -28 -30 -36 -117 -180 -117 -193 0 -20 20
-15 56 12 100 76 217 90 283 34 l24 -20 -38 -32 c-53 -44 -163 -111 -204 -125
-19 -7 -69 -12 -113 -12 l-78 0 -32 -45 c-23 -32 -34 -41 -41 -32 -5 8 -6 4
-2 -9 3 -13 -1 -26 -11 -35 -9 -8 -27 -31 -40 -51 -19 -30 -31 -38 -54 -38
-60 0 -54 53 15 128 13 14 21 30 18 35 -3 6 -1 7 4 4 10 -7 28 20 25 36 -1 4
2 7 7 7 5 0 11 8 15 18 3 9 11 24 17 33 10 14 7 24 -21 58 -39 51 -47 102 -30
198 15 86 41 185 50 196 11 12 67 -19 82 -46 8 -14 13 -63 13 -134 0 -61 3
-109 7 -107 3 2 8 -2 11 -8 2 -7 15 5 28 27 13 22 40 65 61 95 33 50 35 56 23
80 -8 15 -21 33 -31 41 -35 28 -54 96 -54 187 1 78 20 205 33 218 10 10 57 -9
81 -33 31 -31 44 -74 53 -170 4 -48 10 -73 18 -73 18 0 32 20 40 58 3 17 11
32 16 32 6 0 7 4 4 10 -3 5 1 20 9 32 23 32 20 61 -8 87 -59 55 -85 177 -71
325 7 82 7 82 68 65 34 -9 42 -18 63 -65 13 -30 30 -86 36 -125 13 -72 22 -84
37 -47 16 40 24 63 27 77 1 8 6 17 11 20 4 3 8 11 9 16 0 6 4 23 9 39 6 23 4
32 -11 43 -41 29 -72 64 -89 98 -24 52 -37 158 -29 242 6 68 8 72 33 78 71 15
113 -36 131 -158 6 -45 13 -92 16 -105 5 -25 25 -26 30 -1 2 7 17 60 34 116
l32 102 -39 33 c-107 93 -133 150 -133 294 l0 96 33 -7 c75 -17 108 -50 137
-140 34 -107 48 -110 66 -14 6 35 14 78 18 94 8 36 4 42 -51 78 -48 31 -86 96
-98 167 -4 25 -10 54 -13 65 -2 11 -7 41 -9 68 -5 47 -5 47 25 47 17 0 34 -5
37 -10 4 -6 10 -8 15 -5 16 10 70 -76 90 -147 23 -75 45 -90 55 -35 16 90 22
164 15 182 -5 12 -28 27 -58 38 -39 14 -49 22 -45 34 4 10 2 14 -4 10 -13 -8
-66 109 -82 183 -7 30 -18 76 -26 103 l-13 47 40 0 c70 0 115 -38 162 -138 44
-92 66 -82 66 32 0 36 5 68 13 75 10 11 10 13 0 7 -7 -4 -13 -3 -13 2 0 5 -12
14 -26 20 -14 7 -23 15 -21 20 3 4 -5 8 -18 8 -25 2 -36 9 -95 64 -34 32 -75
113 -69 136 2 5 -1 28 -5 51 -4 24 -7 45 -6 48 1 4 -6 18 -15 32 -18 28 -8 44
24 38 9 -2 21 -4 28 -4 28 -2 82 -65 129 -150 27 -50 54 -89 59 -87 18 5 3
260 -17 283 -6 7 -27 13 -47 13 -51 0 -94 30 -133 92 -37 57 -68 120 -68 136
0 5 -11 26 -25 46 l-24 36 52 0 c81 0 128 -35 188 -137 17 -29 34 -53 39 -53
11 0 20 27 15 43 -2 6 -6 28 -9 47 -3 19 -11 63 -18 97 l-13 63 -73 35 c-48
23 -71 39 -66 46 4 8 3 9 -4 5 -17 -11 -90 62 -120 119 -23 44 -62 134 -62
144 0 2 21 0 47 -4 86 -13 141 -53 197 -143 50 -81 58 -27 15 105 -22 67 -10
58 -159 127 -54 25 -238 235 -225 257 3 4 30 11 60 14 78 10 126 -21 223 -144
29 -38 44 -19 27 35 -7 25 -11 52 -8 60 3 8 0 14 -6 14 -5 0 -15 19 -21 42
-14 51 -22 59 -90 82 -110 39 -172 83 -250 182 -28 34 -50 64 -50 67 0 11 60
29 102 30 45 2 71 -11 151 -75 34 -28 56 -14 36 23 -7 13 -12 29 -12 34 1 6
-8 30 -20 54 -21 43 -24 45 -86 58 -100 20 -147 47 -238 140 -46 46 -83 89
-83 94 0 18 70 41 104 33 31 -6 107 -45 136 -68 8 -7 27 -20 43 -29 46 -29 42
1 -13 101 -46 81 -55 93 -88 102 -20 5 -46 10 -58 10 -45 0 -164 50 -200 83
-59 56 -114 112 -114 118 0 9 74 29 110 29 28 0 96 -24 110 -39 20 -23 72 -50
84 -45 17 7 21 29 8 38 -5 3 -24 35 -42 71 -19 36 -43 71 -53 77 -12 6 -44 8
-76 5 -56 -6 -159 11 -211 36 -37 18 -136 86 -155 107 -24 26 -14 44 39 69 39
19 50 21 88 11 58 -15 131 -41 143 -52 14 -13 45 -9 45 5 0 7 -30 45 -66 85
l-66 72 -98 0 c-137 0 -207 23 -283 92 -31 29 -57 57 -57 61 0 14 84 47 120
46 19 0 74 -15 123 -33 48 -18 90 -30 92 -26 10 16 -23 72 -74 125 -56 58 -83
71 -129 62 -136 -25 -149 -26 -207 -16 -73 13 -125 42 -188 106 l-48 49 26 26
c49 49 131 50 235 4 53 -24 79 -31 88 -24 21 18 14 32 -45 90 -46 45 -68 59
-107 68 -127 28 -184 78 -225 198 -26 76 -27 96 -5 88 9 -4 37 -12 63 -18z
m-1845 -445 c9 -372 1 -752 -16 -788 -7 -15 -17 -24 -25 -21 -8 4 -11 1 -7 -5
4 -7 -1 -10 -12 -7 -28 5 -32 86 -33 597 0 244 -3 446 -6 450 -8 8 -1669 14
-1712 6 l-31 -6 -4 -677 c-3 -632 -4 -680 -21 -705 -10 -15 -22 -25 -27 -22
-5 3 -11 -4 -15 -15 -8 -26 -21 -25 -29 3 -3 12 -6 354 -6 759 l0 738 468 3
c257 1 693 3 968 5 l501 2 7 -317z m988 -441 c176 -80 220 -240 117 -432 -22
-41 -49 -84 -60 -96 -10 -11 -19 -30 -19 -42 0 -24 -65 -109 -139 -183 -53
-53 -141 -171 -141 -190 0 -7 36 -48 80 -92 150 -147 247 -329 290 -541 24
-119 25 -209 3 -318 -53 -268 -221 -465 -457 -540 -79 -25 -254 -34 -377 -19
-122 14 -326 65 -564 139 -383 121 -520 152 -667 152 -147 0 -247 -37 -325
-118 -58 -62 -77 -108 -77 -187 0 -78 26 -143 83 -204 37 -40 38 -39 106 61
27 40 91 132 142 205 51 73 93 136 93 142 0 24 -193 21 -276 -4 -10 -4 -3 3
16 13 55 31 170 49 274 44 39 -2 39 -2 21 -22 -20 -22 -14 -33 23 -45 19 -5
23 -2 28 24 5 24 12 31 31 31 33 0 153 -31 153 -39 0 -4 -10 -17 -23 -29 -23
-21 -25 -22 -67 -7 -23 8 -50 15 -59 15 -9 0 -43 -40 -78 -93 -34 -50 -92
-135 -128 -187 -133 -191 -165 -239 -165 -252 0 -13 193 -241 209 -246 5 -2
53 59 107 134 55 75 113 153 129 174 17 20 37 47 45 59 8 12 59 80 112 151 68
91 93 131 85 138 -7 4 -42 21 -79 36 -38 16 -68 33 -68 38 0 8 18 47 26 56 1
2 41 -9 88 -24 93 -31 101 -40 72 -96 -15 -29 -5 -48 25 -48 11 0 20 14 28 45
6 25 17 45 24 45 16 0 140 -40 149 -49 4 -3 2 -28 -4 -54 -12 -56 -14 -56
-106 -16 -49 22 -55 22 -65 7 -66 -92 -170 -235 -254 -346 l-103 -136 69 -63
c195 -178 247 -399 145 -610 -88 -181 -262 -264 -490 -234 -97 13 -170 33
-339 96 -241 90 -388 116 -520 95 -159 -25 -285 -124 -285 -222 0 -38 29 -107
53 -126 13 -11 20 -7 47 32 17 26 37 46 45 46 11 0 15 12 15 41 0 32 9 53 35
90 19 27 35 55 35 63 0 7 14 16 31 20 42 8 199 6 223 -3 17 -7 17 -9 -6 -36
-24 -28 -27 -28 -65 -17 -67 20 -77 16 -117 -44 -36 -53 -37 -59 -35 -131 l2
-76 -41 -2 c-23 -1 -44 -4 -46 -6 -1 -2 -21 -31 -43 -64 -73 -111 -256 -379
-319 -470 -35 -49 -160 -232 -278 -405 -118 -173 -242 -354 -275 -401 -34 -48
-61 -92 -61 -98 0 -17 32 -13 122 15 253 79 488 271 674 550 73 110 74 111 74
177 0 113 29 224 92 352 46 94 54 108 118 195 100 139 149 189 236 242 125 76
127 81 42 113 l-47 17 19 38 20 39 72 -23 c125 -40 118 -35 102 -81 -7 -22
-14 -46 -14 -53 0 -30 -43 -70 -126 -122 -49 -29 -98 -65 -110 -80 -13 -14
-39 -44 -58 -66 -20 -21 -36 -45 -36 -53 0 -7 16 -32 36 -54 20 -22 48 -64 61
-94 22 -48 25 -65 21 -129 -4 -66 -12 -87 -74 -211 -66 -134 -69 -141 -72
-225 -5 -103 16 -161 69 -192 28 -17 30 -20 14 -29 -32 -17 -123 -9 -155 14
-71 53 -94 185 -61 357 32 167 28 340 -7 275 -23 -41 -45 -153 -47 -233 -2
-93 -8 -109 -84 -225 -51 -77 -52 -79 -142 -185 -246 -289 -572 -459 -860
-448 l-77 3 67 100 c37 55 95 141 130 190 34 50 82 119 106 155 24 36 62 92
86 125 23 33 99 143 167 245 69 102 179 262 244 357 65 95 118 176 118 180 0
4 -28 21 -62 37 -117 54 -181 136 -215 271 -47 192 63 407 260 504 131 64 307
79 469 39 77 -18 91 -19 102 -7 23 23 218 313 223 329 3 10 -13 27 -45 48 -67
43 -167 144 -212 213 -173 268 -115 649 135 877 144 132 358 212 565 212 109
0 185 -14 333 -62 l98 -31 17 24 c9 13 66 95 125 183 60 87 127 185 150 217
115 161 147 208 147 218 0 21 -224 51 -389 51 -80 0 -402 -37 -462 -53 -4 -1
-26 20 -50 47 -95 107 -218 113 -279 14 -37 -62 -17 -148 35 -148 30 0 39 14
20 30 -22 19 -18 48 11 77 20 20 32 24 56 19 45 -9 84 -41 107 -89 39 -81 22
-138 -68 -228 -146 -143 -480 -259 -824 -286 -70 -5 -81 -4 -107 15 -16 12
-31 22 -34 22 -3 0 -46 -27 -96 -61 -112 -76 -199 -104 -254 -83 -29 11 -17
20 23 16 50 -5 59 11 24 44 l-28 26 25 -7 c57 -16 100 -17 131 -1 44 22 129
88 129 101 0 5 -23 33 -51 60 -28 28 -55 57 -59 66 -7 13 27 52 158 181 251
249 290 283 442 385 148 99 279 166 500 253 119 47 341 100 510 121 126 16
409 16 540 0 58 -7 158 -26 222 -42 64 -16 119 -29 121 -29 2 0 40 53 83 117
44 65 84 123 89 129 13 15 75 104 125 179 115 173 187 240 285 266 54 15 150
2 217 -29z m-4604 -233 c31 -18 86 -48 122 -68 36 -20 81 -45 100 -54 19 -10
55 -29 80 -43 25 -14 72 -39 105 -56 33 -17 89 -48 125 -68 69 -39 173 -96
280 -153 36 -18 85 -45 110 -59 25 -13 117 -64 205 -112 206 -112 227 -125
245 -142 13 -12 13 -14 0 -14 -13 0 -13 -1 -1 -9 12 -8 10 -12 -10 -21 -23
-10 -40 -5 -150 49 -68 34 -169 87 -224 118 -55 30 -147 80 -205 111 -58 30
-109 58 -115 62 -5 4 -59 34 -119 65 -118 62 -133 70 -368 199 -86 47 -166 86
-178 86 -22 0 -30 -12 -146 -212 -39 -68 -104 -179 -144 -248 -40 -69 -81
-138 -90 -155 -10 -16 -33 -57 -52 -90 -111 -192 -222 -382 -272 -464 -31 -51
-56 -95 -56 -97 0 -1 -22 -40 -50 -85 -27 -45 -50 -88 -50 -94 0 -22 35 -46
165 -117 72 -39 155 -84 185 -100 62 -34 163 -88 260 -140 36 -19 106 -58 155
-85 50 -28 119 -66 155 -85 36 -19 92 -50 125 -68 33 -18 98 -53 145 -78 47
-25 140 -76 207 -114 68 -37 125 -68 127 -68 11 0 166 -92 166 -99 0 -4 -17
-17 -37 -28 -110 -61 -164 -90 -222 -120 -36 -19 -70 -37 -75 -42 -6 -4 -69
-39 -141 -76 -71 -37 -134 -71 -140 -75 -5 -4 -44 -25 -85 -47 -41 -22 -226
-123 -410 -223 -184 -100 -382 -207 -440 -238 -113 -59 -140 -78 -140 -98 0
-7 30 -64 67 -126 37 -62 77 -134 90 -160 13 -26 27 -50 33 -53 5 -3 15 -18
23 -33 21 -42 97 -175 172 -302 37 -63 99 -169 138 -235 38 -66 86 -147 105
-180 19 -33 51 -87 69 -120 19 -33 54 -93 78 -133 25 -41 45 -77 45 -81 0 -4
11 -13 24 -21 22 -11 30 -9 78 18 29 16 94 51 143 77 50 26 114 61 144 77 113
61 212 110 216 106 7 -7 -18 -68 -28 -68 -4 0 -6 -4 -3 -9 7 -11 -5 -22 -84
-66 -36 -21 -81 -47 -100 -58 -37 -22 -73 -42 -185 -102 -38 -21 -110 -60
-159 -87 l-88 -49 -17 23 c-9 12 -41 68 -72 123 -58 105 -77 138 -139 245 -21
36 -47 81 -58 100 -11 19 -42 73 -69 120 -27 47 -63 110 -80 140 -17 30 -80
141 -140 245 -60 105 -121 210 -135 235 -14 25 -50 88 -80 140 -90 155 -135
244 -135 263 0 12 40 39 131 89 72 40 145 80 161 90 17 10 39 22 50 27 11 5
87 45 168 90 81 44 149 81 151 81 2 0 56 29 120 65 64 36 118 65 120 65 3 0
31 15 63 34 32 18 112 63 178 98 66 36 129 70 140 76 42 23 243 132 295 160
57 31 75 58 43 68 -10 3 -27 10 -38 17 -79 44 -308 168 -415 225 -47 24 -89
48 -95 52 -5 4 -59 34 -120 66 -97 51 -222 119 -280 152 -27 15 -329 178 -440
237 -49 27 -106 58 -125 70 -19 12 -49 27 -67 34 -56 23 -58 33 -20 103 19 35
43 79 53 98 11 19 22 37 27 38 4 2 7 8 7 12 0 8 181 324 235 410 12 19 33 53
47 75 14 22 35 58 47 80 12 22 30 54 41 70 11 17 23 37 27 45 4 8 24 43 45 78
21 34 38 64 38 67 0 2 19 37 43 77 24 40 70 118 101 173 126 217 199 335 208
335 5 0 35 -14 66 -31z m5368 -17 c10 -20 51 -91 90 -157 85 -142 199 -337
225 -382 11 -18 27 -48 38 -65 10 -18 61 -105 113 -193 51 -88 97 -167 101
-175 4 -8 11 -22 17 -30 16 -26 97 -163 117 -200 27 -50 128 -223 180 -308 25
-40 44 -74 42 -76 -4 -2 -60 -34 -179 -100 -66 -36 -170 -92 -265 -142 -38
-20 -74 -40 -80 -44 -5 -4 -53 -30 -107 -58 -53 -28 -167 -90 -255 -138 -87
-47 -192 -104 -233 -126 -41 -23 -102 -55 -135 -73 -33 -18 -85 -46 -115 -63
-30 -16 -84 -46 -120 -66 -36 -21 -84 -46 -107 -57 -58 -27 -55 -48 10 -79 29
-13 70 -35 92 -49 22 -14 63 -37 90 -51 46 -25 217 -117 395 -213 41 -22 91
-49 110 -60 19 -11 64 -35 100 -55 36 -19 88 -47 115 -62 28 -15 91 -49 140
-75 119 -63 504 -274 514 -281 4 -4 -135 -270 -160 -306 -11 -14 -19 -28 -19
-31 0 -3 -31 -60 -70 -128 -38 -67 -70 -124 -70 -126 0 -2 -61 -113 -136 -246
-76 -133 -189 -334 -252 -447 -63 -113 -137 -242 -164 -287 l-49 -83 -57 31
c-31 18 -82 45 -112 62 -30 16 -98 53 -150 82 -52 29 -133 72 -180 97 -78 42
-355 192 -475 258 -27 15 -90 49 -140 75 -49 26 -112 60 -140 75 -142 79 -144
80 -361 196 -45 24 -89 44 -98 44 -15 0 -16 -84 -16 -970 l0 -970 -212 -1
c-117 -1 -280 -2 -363 -4 -82 -2 -423 -6 -757 -10 l-607 -7 -6 25 c-4 14 -5
251 -3 528 2 390 6 509 16 527 7 12 17 20 22 17 5 -3 18 -1 29 4 16 9 19 6 25
-21 3 -17 6 -216 6 -444 0 -244 4 -423 10 -438 l10 -26 854 0 c470 0 861 3
870 6 14 6 16 101 16 975 0 533 2 969 5 969 10 0 100 -46 200 -102 55 -30 138
-75 185 -100 47 -24 105 -56 130 -70 102 -58 400 -218 405 -218 3 0 22 -11 43
-23 20 -13 87 -50 147 -82 61 -32 141 -76 178 -97 38 -21 70 -38 72 -38 2 0
42 -23 90 -50 48 -28 89 -50 92 -50 2 0 49 -25 104 -55 55 -30 106 -55 114
-55 8 0 20 10 26 23 7 12 15 24 18 27 4 3 12 16 19 30 7 14 23 43 37 65 14 22
28 47 32 55 3 8 15 28 27 44 11 17 28 44 37 60 29 55 140 248 200 349 33 54
59 99 59 101 0 3 32 56 70 120 39 63 70 118 70 121 0 3 22 40 48 83 27 42 62
102 79 132 17 30 51 90 77 133 59 99 64 133 23 153 -45 21 -204 108 -258 140
-31 19 -59 34 -63 34 -3 0 -72 37 -153 81 -82 45 -195 106 -253 136 -58 31
-115 62 -128 70 -32 20 -162 90 -342 186 -52 27 -100 54 -106 59 -6 5 -42 24
-80 43 -38 19 -100 53 -139 75 -38 23 -87 49 -107 58 -21 9 -38 20 -38 23 0 3
42 28 93 54 50 27 133 71 182 98 50 28 128 70 175 95 47 24 114 61 150 82 36
20 99 55 140 77 41 22 102 55 135 73 33 18 143 78 245 133 102 56 208 113 235
128 28 15 70 38 95 52 189 100 240 131 245 146 6 19 -24 78 -147 286 -39 66
-100 172 -136 235 -130 231 -236 416 -263 455 -15 22 -33 56 -41 75 -8 19 -22
41 -31 49 -10 7 -17 18 -17 23 0 8 -106 193 -169 295 -15 24 -34 42 -44 43
-16 0 -172 -77 -202 -100 -28 -21 -368 -190 -383 -190 -10 0 -23 -5 -29 -11
-6 -6 -16 -8 -22 -5 -21 13 -11 37 19 47 17 6 30 17 30 25 0 8 4 14 10 14 5 0
32 17 59 38 28 20 72 48 98 62 26 13 64 34 83 45 84 51 373 204 386 204 5 1
19 -16 30 -37z m-1848 -2181 c41 -11 75 -21 77 -23 5 -5 -16 -91 -25 -101 -4
-4 -40 -1 -79 9 -66 14 -72 18 -68 37 3 12 9 39 12 60 4 20 8 37 9 37 0 0 34
-9 74 -19z m238 -53 l64 -11 0 -50 0 -50 -72 6 c-103 10 -118 15 -114 41 3 11
5 33 5 49 1 32 16 34 117 15z m217 -28 c12 0 17 -8 17 -29 0 -26 -5 -30 -44
-40 -65 -16 -66 -16 -66 35 l0 47 38 -7 c20 -3 45 -6 55 -6z m192 0 c-3 -5
-31 -17 -62 -26 -46 -13 -57 -14 -64 -3 -13 21 1 28 66 32 33 2 61 4 63 5 2 1
0 -2 -3 -8z m-1790 -1389 c-9 -50 -10 -50 -57 -40 -97 21 -110 37 -92 105 l5
20 76 -24 75 -25 -7 -36z m180 -5 c50 -8 101 -17 115 -19 l25 -3 -30 -14 c-16
-7 -72 -15 -124 -18 -83 -4 -96 -2 -108 14 -7 10 -13 29 -13 42 0 20 4 23 23
19 12 -4 63 -13 112 -21z m-1090 -536 c9 -10 15 -26 12 -34 -3 -8 -50 -82
-104 -163 -54 -81 -100 -153 -103 -158 -21 -45 -179 -266 -192 -271 -27 -8
-58 14 -58 41 0 22 138 240 338 538 49 72 74 84 107 47z m-1570 -1755 c9 -89
14 -148 14 -166 1 -18 17 -16 155 19 l79 21 38 -27 c21 -15 37 -33 34 -39 -2
-7 -28 -45 -58 -85 -89 -121 -125 -171 -159 -220 -18 -27 -36 -48 -41 -48 -10
0 -67 42 -67 50 0 3 38 60 85 125 46 65 83 120 81 122 -4 4 -116 -22 -185 -43
-25 -8 -46 -13 -47 -11 -2 2 -6 54 -10 115 -4 62 -10 115 -14 117 -7 4 -156
-192 -166 -219 -8 -21 -13 -20 -54 13 l-34 29 40 53 c23 30 83 111 134 181
l93 127 38 -27 c35 -25 38 -32 44 -87z m5560 5 c6 0 30 18 54 40 l45 40 28
-33 c15 -17 27 -34 28 -37 0 -3 -22 -23 -50 -44 -27 -21 -50 -41 -50 -44 0 -8
103 -142 109 -142 4 0 22 14 41 31 59 51 65 52 94 18 14 -17 24 -35 21 -40 -3
-4 -32 -29 -65 -54 -83 -64 -113 -62 -175 8 -26 28 -68 79 -93 112 -25 33 -50
65 -56 70 -6 6 -26 30 -45 53 l-33 44 21 15 c12 8 27 21 34 28 10 12 18 7 47
-26 19 -21 40 -39 45 -39z m-117 -146 c15 -5 46 -42 89 -108 36 -55 74 -113
85 -128 l19 -27 -38 -25 -37 -26 -69 106 c-38 58 -75 108 -83 111 -11 4 -104
-51 -104 -62 0 -2 26 -43 58 -92 62 -93 86 -134 80 -136 -2 -1 -18 -12 -36
-25 l-32 -23 -72 111 c-39 60 -75 110 -81 110 -17 0 -97 -55 -97 -67 0 -6 29
-56 65 -110 36 -54 64 -104 63 -111 -2 -7 -17 -22 -34 -32 l-30 -20 -72 113
c-39 61 -75 117 -80 122 -27 33 -44 67 -36 74 16 13 239 159 315 206 74 46 86
49 127 39z m-5019 -199 c181 -95 203 -125 156 -218 -15 -30 -36 -64 -45 -77
l-17 -23 -31 21 c-16 12 -33 22 -36 22 -3 0 -40 20 -82 45 -74 44 -104 50
-104 23 0 -13 199 -138 219 -138 17 0 13 -19 -10 -56 l-21 -34 -66 37 c-37 20
-98 57 -137 82 -101 67 -103 80 -29 214 43 77 67 110 89 121 40 21 38 21 114
-19z m4544 -115 c29 -23 96 -152 81 -157 -5 -2 -30 -14 -54 -28 -25 -13 -75
-39 -112 -56 -38 -18 -68 -37 -68 -43 1 -37 19 -33 133 25 64 32 122 59 127
59 5 0 18 -17 27 -37 l18 -37 -135 -68 c-74 -37 -145 -68 -156 -68 -38 0 -74
40 -123 139 -52 102 -57 140 -24 172 29 29 205 118 234 119 15 0 38 -9 52 -20z
m-3963 -45 c17 -9 30 -19 30 -24 0 -8 -23 -60 -112 -251 -22 -47 -49 -106 -60
-133 -24 -56 -12 -58 -183 23 -125 59 -145 76 -145 125 0 37 94 231 118 244
35 19 66 13 157 -29 48 -22 90 -40 94 -40 4 0 18 23 31 50 13 28 27 50 32 50
5 0 22 -7 38 -15z m124 -50 c20 -8 36 -18 36 -22 0 -20 -26 -73 -36 -73 -22 0
-74 22 -74 31 0 13 28 79 33 79 3 0 21 -7 41 -15z m3479 -85 c15 -12 31 -35
36 -53 5 -18 28 -78 50 -135 l40 -104 -34 -14 c-19 -8 -38 -14 -43 -14 -7 0
-67 145 -96 234 -4 12 -11 16 -24 11 -9 -4 -36 -14 -59 -22 -24 -8 -43 -18
-43 -22 0 -9 52 -151 75 -205 9 -21 13 -42 8 -46 -12 -10 -73 -33 -77 -29 -2
2 -22 56 -46 119 -24 63 -46 119 -50 123 -6 6 -106 -26 -118 -38 -1 -1 2 -13
7 -26 31 -75 81 -210 81 -219 0 -9 -70 -44 -75 -38 -8 10 -29 55 -35 77 -5 14
-18 51 -30 81 -12 30 -25 66 -30 80 -4 14 -15 41 -24 61 l-15 37 77 30 c201
79 349 131 373 132 15 0 38 -9 52 -20z m-3488 -59 c-4 -9 -24 -61 -46 -116
-72 -189 -77 -200 -85 -200 -32 1 -74 19 -74 31 0 8 28 86 63 173 l62 158 43
-15 c33 -11 42 -18 37 -31z m268 -76 l119 -38 -7 -36 c-4 -20 -10 -39 -14 -44
-4 -4 -63 11 -131 33 -68 22 -126 40 -130 40 -6 0 -55 -145 -55 -163 0 -9 58
-30 183 -67 39 -12 72 -25 72 -29 0 -9 -21 -74 -26 -79 -3 -4 -204 60 -262 84
-39 15 -62 46 -62 84 0 31 61 214 79 234 36 41 50 40 234 -19z m660 -35 c7 -6
-4 -88 -48 -356 -5 -30 -3 -32 31 -39 36 -6 36 -7 31 -47 -3 -22 -7 -41 -9
-43 -2 -2 -26 1 -53 6 -93 19 -109 61 -81 210 8 41 22 119 31 174 10 55 19
103 22 107 4 8 64 -1 76 -12z m2020 -22 c21 -20 57 -121 57 -160 0 -13 -46
-29 -187 -64 -55 -14 -73 -23 -73 -36 0 -9 3 -19 8 -22 4 -2 55 8 112 24 173
46 156 46 168 -2 6 -23 10 -43 9 -45 -6 -6 -278 -73 -297 -73 -56 0 -87 56
-121 227 -19 90 -3 109 122 145 121 34 170 35 202 6z m-2381 -24 c151 -31 173
-39 194 -71 19 -30 17 -58 -22 -221 l-26 -113 -32 6 c-66 12 -173 38 -226 54
-42 12 -58 23 -73 48 -18 32 -18 35 -1 105 10 40 21 76 24 80 5 7 23 4 175
-30 66 -15 92 -17 97 -9 14 22 2 31 -58 45 -32 7 -90 21 -129 31 -68 18 -70
19 -67 47 3 34 9 54 17 54 2 0 60 -12 127 -26z m793 -100 c33 -42 67 -85 76
-97 18 -23 14 -26 150 126 34 38 36 39 83 32 l49 -8 -7 -75 c-3 -41 -6 -142
-6 -224 l0 -149 -47 3 -48 3 3 155 2 155 -32 -35 c-18 -19 -56 -61 -84 -93
l-50 -58 -74 97 c-61 80 -75 93 -81 78 -4 -11 -8 -78 -8 -151 -1 -72 -5 -134
-10 -138 -6 -3 -28 -2 -51 1 l-42 7 6 66 c3 36 8 137 12 224 l6 157 47 0 c45
0 47 -1 106 -76z m1224 24 c-9 -29 -38 -111 -64 -183 -26 -71 -49 -138 -52
-147 -4 -14 -16 -18 -47 -18 -39 0 -45 4 -81 52 -22 29 -77 99 -122 156 -46
57 -83 105 -83 106 0 9 94 26 100 19 4 -4 42 -54 85 -110 43 -57 81 -103 84
-103 3 0 26 58 49 129 l44 129 41 10 c67 16 66 16 46 -40z m-480 -62 c18 -19
23 -38 27 -112 3 -49 7 -99 9 -110 3 -12 0 -36 -6 -54 -16 -45 -56 -59 -191
-65 -158 -8 -161 -5 -178 174 -16 167 8 190 201 191 109 0 117 -1 138 -24z"/>
<path d="M5425 10744 c-24 -59 -75 -213 -75 -230 0 -11 18 -14 91 -14 l91 0
-5 28 c-8 44 -68 236 -77 246 -5 5 -16 -8 -25 -30z"/>
<path d="M3766 10596 c-44 -12 -82 -28 -84 -34 -6 -19 28 -123 43 -128 22 -9
178 37 203 59 45 41 17 114 -48 122 -19 2 -71 -6 -114 -19z"/>
<path d="M7168 8759 c-63 -14 -113 -56 -171 -142 -31 -45 -75 -109 -98 -142
-40 -56 -64 -91 -206 -297 -31 -46 -77 -112 -102 -148 -143 -204 -194 -280
-216 -320 -14 -25 -45 -70 -69 -100 -25 -30 -91 -122 -148 -203 -57 -81 -145
-207 -195 -280 -51 -73 -93 -137 -93 -143 0 -11 291 -144 324 -147 21 -2 12
-14 351 443 132 178 263 351 290 384 28 34 79 103 115 154 142 202 184 259
224 307 79 94 209 279 233 332 33 71 40 150 19 191 -40 77 -167 131 -258 111z"/>
<path d="M4672 7614 c-38 -19 -73 -50 -128 -116 -42 -49 -88 -94 -101 -99 -47
-18 -19 -34 75 -43 81 -8 94 -7 124 11 48 28 90 102 96 169 3 40 10 58 24 69
11 7 17 18 13 24 -11 18 -48 13 -103 -15z"/>
<path d="M6535 7108 c-201 -270 -228 -308 -223 -313 9 -9 126 -35 182 -41 109
-11 239 36 303 110 65 74 78 174 39 301 -16 50 -92 176 -111 182 -6 2 -91
-106 -190 -239z"/>
<path d="M5112 5895 c-12 -15 -22 -34 -22 -42 0 -8 30 -49 67 -91 36 -42 81
-94 98 -114 18 -21 36 -38 39 -38 9 0 55 53 56 64 0 8 -91 114 -176 205 l-41
43 -21 -27z"/>
<path d="M4997 5731 c-23 -38 -22 -40 19 -86 20 -21 63 -72 97 -112 34 -40 67
-73 73 -73 13 0 44 43 44 61 0 10 -37 56 -170 210 -31 36 -41 36 -63 0z"/>
<path d="M4891 5574 c-12 -15 -21 -31 -21 -37 0 -5 17 -29 38 -51 20 -23 62
-72 92 -109 30 -36 62 -66 70 -66 21 0 52 46 45 67 -3 9 -22 35 -43 58 -20 22
-59 68 -87 102 -27 34 -55 62 -62 62 -6 0 -21 -12 -32 -26z"/>
<path d="M5267 5401 c-53 -72 -97 -133 -97 -137 0 -14 117 5 160 26 59 29 92
71 97 123 5 46 -23 110 -49 115 -9 2 -53 -49 -111 -127z"/>
<path d="M4780 5414 c-12 -19 -21 -37 -19 -39 4 -4 139 -55 145 -55 2 0 4 5 4
11 0 12 -90 119 -101 119 -4 0 -17 -16 -29 -36z"/>
<path d="M2992 2199 c-10 -16 -10 -24 -1 -35 6 -8 15 -14 20 -14 4 0 34 -16
66 -35 53 -32 59 -34 71 -18 6 9 12 22 12 28 0 9 -137 95 -151 95 -2 0 -10 -9
-17 -21z"/>
<path d="M7492 2060 c-88 -46 -85 -43 -77 -69 9 -29 19 -27 103 16 74 38 81
47 60 75 -12 15 -21 12 -86 -22z"/>
<path d="M3319 1953 c-19 -42 -33 -80 -33 -83 2 -6 145 -80 157 -80 8 0 77
141 77 158 0 7 -71 43 -156 78 -6 3 -26 -30 -45 -73z"/>
<path d="M6565 1708 c-38 -10 -73 -22 -76 -26 -4 -4 -3 -18 2 -31 7 -17 14
-21 27 -16 9 4 46 14 82 22 77 19 80 21 69 51 -10 26 -12 26 -104 0z"/>
<path d="M4247 1563 c-15 -14 -7 -53 11 -53 9 0 48 -7 85 -17 59 -14 70 -14
78 -2 5 8 9 19 9 26 0 19 -168 61 -183 46z"/>
<path d="M5646 1562 c-16 -3 -18 -13 -14 -87 1 -46 5 -85 8 -87 3 -3 46 -2 95
1 l90 6 -3 60 c-2 33 -5 73 -8 88 -6 28 -6 28 -78 25 -40 -2 -80 -5 -90 -6z"/>
</g>
</svg>
