<?xml version="1.0" standalone="no"?>
<!DOCTYPE svg PUBLIC "-//W3C//DTD SVG 20010904//EN"
 "http://www.w3.org/TR/2001/REC-SVG-20010904/DTD/svg10.dtd">
<svg version="1.0" xmlns="http://www.w3.org/2000/svg"
 width="1278.000000pt" height="1280.000000pt" viewBox="0 0 1278.000000 1280.000000"
 preserveAspectRatio="xMidYMid meet">

<g transform="translate(0.000000,1280.000000) scale(0.100000,-0.100000)"
fill="#000000" stroke="none">
<path d="M0 6400 l0 -6400 6390 0 6390 0 0 6400 0 6400 -6390 0 -6390 0 0
-6400z m6765 6360 c470 -27 873 -95 1375 -231 169 -46 529 -174 735 -262 479
-203 981 -498 1404 -824 127 -98 102 -78 235 -194 60 -51 132 -114 160 -138
223 -189 585 -587 815 -895 413 -553 757 -1219 956 -1851 20 -66 41 -129 46
-140 5 -11 13 -38 18 -60 5 -22 30 -121 54 -220 25 -99 48 -193 51 -210 4 -16
9 -41 12 -55 3 -14 11 -61 19 -105 8 -44 17 -89 19 -100 21 -88 57 -401 74
-645 4 -58 7 -285 6 -505 -1 -364 -4 -421 -28 -630 -30 -267 -36 -299 -101
-625 -22 -112 -109 -456 -125 -495 -4 -11 -29 -85 -55 -165 -44 -135 -62 -185
-117 -330 -22 -58 -32 -82 -71 -170 -13 -30 -27 -65 -31 -77 -13 -41 -214
-438 -289 -568 -199 -350 -405 -649 -651 -943 -168 -202 -487 -530 -682 -703
-68 -60 -284 -238 -339 -279 -33 -25 -62 -47 -65 -50 -3 -4 -27 -22 -55 -41
-27 -18 -54 -37 -60 -42 -114 -84 -362 -245 -445 -289 -25 -13 -65 -36 -90
-50 -340 -198 -752 -382 -1135 -508 -88 -29 -169 -56 -180 -61 -53 -22 -358
-97 -595 -146 -41 -8 -88 -19 -105 -24 -16 -5 -88 -16 -160 -24 -71 -9 -139
-18 -150 -21 -40 -9 -344 -36 -500 -44 -203 -11 -532 -11 -700 0 -181 12 -449
37 -520 50 -33 5 -103 17 -155 25 -84 12 -183 33 -436 88 -208 46 -678 193
-849 266 -11 5 -40 17 -65 27 -25 9 -67 27 -95 39 -27 12 -70 30 -95 41 -234
99 -769 396 -980 544 -112 79 -213 151 -245 175 -210 157 -471 385 -705 616
-141 139 -178 180 -399 434 -23 26 -80 100 -185 241 -378 501 -730 1162 -911
1709 -14 44 -30 89 -35 100 -5 11 -21 61 -35 110 -15 50 -34 110 -42 135 -8
25 -23 83 -34 130 -18 80 -38 160 -60 240 -6 19 -17 73 -25 120 -8 47 -21 119
-29 160 -65 360 -90 674 -90 1115 0 612 55 1052 204 1620 37 145 46 175 90
315 41 133 147 420 191 520 16 36 45 103 66 150 119 274 322 641 505 912 22
32 39 62 39 67 0 5 4 11 8 13 5 2 28 32 52 68 48 72 177 247 197 268 7 8 26
30 40 50 24 33 70 88 168 201 86 100 318 342 417 434 267 248 497 436 729 597
35 24 69 48 74 52 6 5 30 21 55 37 25 16 91 58 148 95 57 36 105 66 107 66 3
0 35 19 72 42 99 60 114 68 330 177 390 196 753 337 1163 451 41 11 91 25 110
30 19 6 64 17 100 26 36 8 83 19 105 25 146 35 412 80 580 99 50 5 133 15 185
21 222 27 710 36 1005 19z"/>
<path d="M6020 12663 c-77 -4 -372 -33 -440 -43 -36 -5 -90 -12 -120 -16 -30
-3 -97 -15 -148 -25 -52 -10 -124 -24 -160 -29 -266 -42 -813 -208 -1137 -345
-60 -25 -132 -55 -160 -65 -61 -24 -488 -239 -565 -284 -30 -19 -75 -45 -100
-60 -25 -14 -54 -32 -65 -39 -10 -6 -58 -36 -105 -66 -167 -106 -350 -233
-455 -318 -5 -5 -30 -24 -55 -43 -25 -19 -54 -43 -65 -52 -11 -9 -54 -44 -95
-79 -163 -134 -412 -374 -592 -569 -128 -140 -170 -189 -269 -316 -30 -38 -60
-75 -67 -83 -7 -7 -30 -39 -52 -70 -21 -31 -71 -101 -109 -156 -60 -85 -133
-197 -226 -345 -46 -74 -135 -229 -180 -315 -26 -49 -53 -101 -61 -115 -40
-74 -108 -222 -163 -355 -35 -82 -67 -158 -72 -167 -15 -30 -110 -300 -167
-478 -57 -178 -129 -482 -187 -795 -97 -523 -108 -1210 -30 -1870 8 -71 17
-141 20 -155 3 -14 7 -36 10 -50 64 -348 96 -482 193 -815 45 -152 169 -489
232 -630 10 -22 32 -72 49 -112 46 -106 193 -391 274 -531 40 -67 78 -134 86
-148 7 -14 68 -108 135 -207 242 -360 479 -646 791 -955 281 -278 474 -443
780 -667 289 -213 765 -485 1095 -627 143 -62 305 -128 314 -128 4 0 26 -8 49
-19 60 -27 196 -74 317 -110 58 -17 119 -35 135 -41 135 -43 500 -125 695
-155 461 -73 545 -79 1015 -79 347 1 442 4 620 23 116 12 224 24 240 28 17 3
41 7 55 9 14 1 52 6 85 9 33 4 112 18 175 32 63 13 165 35 225 48 61 13 146
33 190 45 44 12 103 27 130 35 209 54 609 198 820 295 44 20 100 45 125 56 79
34 390 193 453 233 34 21 91 54 127 74 101 55 402 259 532 359 33 27 63 48 67
48 3 0 20 13 38 28 35 30 46 40 118 97 27 22 63 52 80 66 16 15 55 48 85 74
71 62 325 310 415 406 66 70 135 148 265 299 30 35 60 68 66 74 16 17 168 215
179 234 6 9 12 19 15 22 3 3 24 32 46 65 92 136 109 160 117 163 4 2 14 18 22
35 9 18 37 66 64 107 27 41 82 131 122 200 40 69 77 127 81 128 4 2 6 8 2 13
-3 5 0 9 5 9 6 0 11 9 11 21 0 11 4 18 8 15 4 -2 14 4 21 16 10 16 10 19 -1
13 -7 -3 -6 -1 3 7 9 7 19 24 23 38 15 50 29 80 36 75 4 -3 22 32 40 78 17 45
38 96 45 112 18 39 38 89 39 95 1 3 12 32 25 65 13 33 32 83 42 110 10 28 32
86 48 130 80 216 190 600 240 840 18 83 38 182 46 220 28 130 68 449 85 669
13 164 13 647 0 836 -20 295 -62 624 -105 820 -7 36 -23 110 -35 165 -71 331
-234 838 -357 1104 -14 31 -26 61 -27 66 -1 6 -11 29 -24 53 -12 23 -22 49
-22 56 0 7 -9 23 -20 36 -11 13 -20 27 -20 32 0 12 -44 111 -71 163 -12 22
-31 58 -42 80 -11 22 -22 42 -26 45 -3 3 -12 16 -20 30 -39 67 -113 192 -151
255 -63 103 -207 317 -258 385 -18 25 -43 58 -55 74 -36 49 -178 228 -211 267
-17 19 -50 58 -73 85 -121 143 -462 485 -608 610 -180 154 -215 183 -269 224
-33 25 -94 71 -135 102 -42 32 -80 61 -86 65 -25 21 -239 163 -315 210 -246
152 -719 402 -810 428 -14 4 -34 12 -45 19 -11 7 -49 24 -85 38 -36 14 -101
40 -145 58 -79 32 -417 147 -452 153 -10 2 -25 7 -33 10 -91 35 -607 149 -820
181 -112 16 -331 39 -545 56 -111 9 -615 11 -755 3z m626 -523 c37 -90 214
-539 214 -544 0 -3 11 -29 24 -58 13 -29 33 -78 44 -108 11 -30 25 -67 31 -82
l11 -28 -160 0 -159 0 -18 56 c-9 30 -25 60 -35 65 -10 5 -91 8 -180 7 l-162
-3 -21 -52 c-11 -28 -24 -55 -29 -60 -7 -8 -287 -6 -295 2 -2 3 6 28 19 57 12
29 38 91 57 138 19 47 41 99 48 115 8 17 31 71 51 120 112 275 161 392 172
413 13 22 15 22 189 20 l176 -3 23 -55z m1439 -130 c155 -43 204 -61 209 -78
16 -55 66 -272 66 -286 0 -37 31 -26 107 35 43 35 80 66 83 69 8 8 94 76 106
83 6 3 33 -1 60 -9 27 -9 93 -28 147 -43 54 -15 98 -30 98 -35 0 -4 -57 -50
-128 -102 -445 -328 -398 -288 -426 -362 -14 -37 -40 -109 -58 -159 -24 -67
-38 -93 -50 -93 -9 0 -49 11 -90 23 -41 13 -98 30 -126 36 -35 9 -53 18 -53
28 0 8 25 81 55 162 l56 148 -21 74 c-21 71 -33 112 -64 217 -8 26 -28 94 -45
152 -16 58 -34 121 -40 140 -6 19 -11 36 -11 37 0 2 10 -1 23 -6 12 -5 58 -19
102 -31z m-3319 -36 c69 -20 130 -66 169 -129 25 -41 30 -58 30 -114 0 -78
-18 -123 -72 -175 l-38 -37 50 -47 c28 -26 99 -89 158 -141 59 -52 107 -98
107 -101 0 -7 -285 -90 -308 -90 -6 0 -68 55 -138 123 -69 67 -132 125 -139
129 -15 9 -117 -24 -116 -37 0 -6 21 -74 47 -153 25 -79 44 -145 41 -148 -14
-14 -271 -74 -279 -66 -5 5 -40 99 -78 208 -37 110 -97 285 -133 389 -36 105
-67 199 -69 209 -2 15 5 21 27 27 54 12 228 60 310 84 291 88 340 96 431 69z
m-1702 -1096 c-18 -95 -64 -188 -110 -223 -33 -26 -165 -75 -199 -75 -8 0 -34
-21 -57 -47 -24 -26 -56 -59 -71 -73 -28 -27 -29 -53 -3 -63 7 -3 46 11 87 31
78 38 161 51 234 38 33 -6 85 -46 85 -65 0 -27 -173 -172 -210 -176 -8 -1 -24
-6 -35 -11 -23 -10 -179 -10 -277 1 l-68 7 -65 -68 c-72 -75 -112 -141 -96
-157 6 -6 36 3 88 26 99 46 153 60 201 51 44 -8 112 -41 112 -54 0 -5 -25 -34
-57 -64 -95 -94 -205 -136 -360 -136 -87 0 -94 -2 -122 -27 -50 -47 -131 -145
-131 -160 0 -15 31 -18 46 -4 17 16 175 72 207 73 41 1 72 -9 121 -39 l38 -25
-50 -48 c-131 -125 -278 -186 -422 -174 l-76 7 -27 -32 c-15 -18 -27 -36 -27
-41 0 -4 -16 -36 -35 -70 -22 -39 -33 -70 -30 -81 10 -32 23 -26 103 41 7 6
17 8 24 4 6 -4 8 -3 5 3 -8 13 39 40 86 48 48 9 157 -12 157 -31 0 -7 -35 -48
-77 -91 -94 -95 -167 -135 -283 -158 -108 -21 -124 -29 -139 -71 -7 -18 -18
-39 -24 -46 -18 -19 -67 -123 -67 -141 0 -21 29 -22 37 -1 3 8 12 13 20 10 8
-3 11 -1 8 4 -8 13 109 87 165 104 53 16 96 11 129 -14 l24 -18 -34 -43 c-59
-76 -169 -178 -225 -208 -30 -16 -84 -36 -121 -45 -57 -13 -111 -45 -97 -59 2
-2 -9 -33 -26 -68 -52 -110 -34 -130 46 -52 69 66 121 87 194 78 32 -4 66 -12
75 -19 16 -11 15 -15 -7 -42 -14 -16 -29 -36 -34 -45 -20 -36 -111 -132 -154
-164 -25 -19 -86 -49 -135 -67 -89 -33 -90 -34 -104 -78 -7 -25 -20 -60 -28
-79 -17 -40 -30 -161 -17 -161 5 0 20 16 33 35 13 19 27 32 32 29 5 -3 9 1 9
10 0 8 21 37 46 65 58 64 119 86 195 70 27 -6 49 -13 49 -16 0 -3 -25 -44 -57
-92 -82 -125 -182 -219 -270 -254 -39 -15 -78 -36 -88 -47 -19 -21 -69 -215
-60 -231 12 -19 35 -8 51 24 26 51 95 137 110 137 8 0 14 4 14 9 0 20 139 56
155 39 8 -7 -30 -110 -59 -162 -42 -76 -59 -100 -90 -126 -49 -42 -165 -110
-186 -110 -12 0 -24 -10 -30 -22 -13 -34 -43 -275 -35 -287 12 -21 24 -11 52
46 15 31 53 82 83 114 52 54 58 58 128 70 39 7 75 10 78 6 3 -3 -2 -15 -13
-26 -10 -11 -27 -44 -37 -73 -23 -66 -84 -186 -108 -212 -10 -11 -18 -23 -18
-27 0 -12 -62 -41 -97 -45 -75 -10 -81 -16 -87 -96 -9 -101 -3 -261 9 -265 6
-1 36 49 68 111 69 134 109 177 172 184 24 2 45 -1 49 -6 3 -5 -3 -29 -13 -53
-11 -24 -22 -73 -25 -109 -7 -83 -21 -131 -46 -160 -11 -13 -20 -26 -20 -31 0
-8 -95 -79 -108 -79 -4 -1 -25 -14 -47 -29 l-40 -29 0 -91 c0 -50 3 -91 8 -91
4 0 7 -6 7 -14 0 -21 19 -30 34 -17 8 6 19 32 26 56 7 25 23 55 35 67 13 12
21 27 19 33 -7 17 58 72 97 83 38 10 89 5 89 -8 0 -4 -6 -23 -14 -41 -8 -19
-16 -59 -19 -89 -7 -74 -51 -207 -81 -249 -31 -42 -52 -57 -94 -66 -45 -9 -56
-34 -43 -98 5 -29 13 -83 16 -120 10 -98 46 -107 61 -15 4 23 11 35 17 31 6
-4 8 0 4 10 -8 20 33 104 68 140 26 25 42 32 72 28 6 -1 14 3 18 9 46 75 18
-227 -31 -327 -26 -54 -96 -119 -114 -108 -6 4 -10 3 -9 -2 1 -4 -1 -16 -5
-25 -8 -18 30 -227 44 -242 14 -14 40 13 40 41 0 14 6 39 14 56 7 18 19 48 26
67 24 64 83 110 143 110 22 0 25 -6 31 -52 3 -29 6 -78 6 -109 0 -67 -26 -163
-42 -153 -7 5 -8 2 -4 -5 14 -22 -68 -119 -137 -163 -12 -7 -2 -54 33 -158 61
-176 78 -184 86 -42 9 156 56 252 123 252 51 0 71 -11 72 -39 0 -14 2 -79 4
-143 3 -98 0 -127 -17 -176 -21 -61 -62 -116 -110 -145 -27 -17 -27 -18 -13
-56 7 -22 10 -43 7 -47 -4 -4 -2 -4 5 -1 7 5 14 -4 18 -22 3 -17 16 -49 27
-73 34 -70 58 -73 58 -8 0 51 26 167 46 205 8 17 26 38 40 49 26 18 90 30 98
18 2 -4 6 -41 10 -82 4 -41 9 -93 12 -115 11 -82 -37 -230 -96 -292 -26 -28
-25 -40 3 -83 13 -19 30 -55 37 -80 16 -50 38 -80 57 -80 9 0 13 21 13 74 0
80 28 186 58 222 18 21 89 51 98 41 14 -14 47 -212 48 -282 0 -92 -26 -172
-74 -227 -36 -40 -37 -58 -5 -88 13 -12 22 -27 19 -31 -3 -5 -1 -9 4 -9 5 0
15 -12 23 -28 19 -36 52 -85 64 -94 25 -18 30 4 31 128 0 87 5 138 14 157 13
26 66 67 88 67 6 0 17 -21 25 -48 14 -43 23 -77 57 -230 18 -80 7 -133 -41
-199 -41 -55 -41 -56 -22 -72 11 -9 31 -32 44 -51 13 -19 31 -42 40 -51 9 -9
30 -39 45 -65 15 -27 34 -53 41 -57 16 -10 9 -57 -9 -69 -23 -14 -54 -9 -73
12 -10 11 -14 20 -9 20 5 0 4 4 -2 8 -5 4 -36 39 -68 77 -103 126 -85 115
-197 115 -75 0 -111 5 -154 21 -30 11 -55 24 -55 28 0 4 -16 13 -36 20 -20 7
-68 36 -106 64 -64 47 -68 51 -55 71 33 50 157 74 216 42 14 -8 30 -12 36 -9
7 2 43 -16 80 -42 37 -25 72 -45 76 -45 25 0 2 52 -67 150 -41 60 -79 112 -84
115 -5 3 -53 7 -107 8 -80 2 -108 8 -153 28 -81 38 -220 165 -220 201 0 22 43
68 63 68 45 0 169 -54 240 -103 14 -10 35 -17 46 -15 24 4 27 -2 -57 138 -66
110 -69 113 -102 107 -30 -6 -219 25 -260 42 -48 21 -90 53 -90 69 0 5 -20 40
-45 78 -25 37 -45 71 -45 75 0 19 61 49 98 49 44 0 107 -22 95 -34 -4 -4 0 -4
10 -1 11 5 37 -9 82 -45 36 -28 65 -56 65 -61 0 -11 27 -12 34 -1 3 5 -20 66
-50 136 -74 174 -70 167 -98 156 -15 -5 -35 -5 -53 1 -15 5 -59 18 -98 29 -92
27 -148 61 -176 107 -13 21 -40 56 -61 78 -21 22 -38 45 -38 51 0 19 56 64 86
68 17 2 49 -6 78 -20 49 -24 152 -97 173 -124 9 -12 14 -12 24 -3 10 10 6 31
-16 100 -15 48 -37 105 -47 125 -16 34 -23 38 -56 38 -70 0 -244 76 -303 133
-39 38 -84 120 -74 137 3 5 1 10 -4 10 -6 0 -11 13 -11 28 0 30 20 46 70 55
32 6 146 -36 142 -52 -1 -7 2 -10 7 -7 9 6 47 -19 99 -68 51 -47 60 -25 28 71
-14 43 -26 85 -26 94 0 17 -39 39 -72 39 -11 0 -59 12 -107 27 -73 22 -92 33
-129 72 -24 25 -52 62 -62 81 -10 19 -29 47 -41 61 -68 74 -65 67 -38 90 44
39 85 51 132 38 53 -14 142 -72 186 -121 58 -65 76 -48 55 52 -21 106 -25 124
-29 154 -2 16 -7 31 -10 34 -2 3 -42 6 -87 7 -95 2 -146 21 -177 63 -23 32
-56 119 -65 171 -3 19 -18 49 -32 68 l-25 34 31 29 c34 32 40 34 89 24 48 -10
138 -103 180 -186 17 -34 48 -37 53 -5 2 12 0 54 -5 92 -4 39 -9 87 -11 108
-4 47 -8 51 -71 67 -78 21 -154 60 -176 92 -24 33 -93 189 -103 233 -4 17 -9
37 -11 45 -11 35 96 68 148 46 35 -14 96 -97 136 -183 26 -56 28 -58 49 -44
11 6 13 40 9 157 -3 82 -6 150 -6 152 -1 1 -21 11 -46 22 -57 24 -135 83 -157
118 -23 36 -56 162 -64 239 l-7 63 53 0 c51 0 55 -2 99 -49 25 -27 66 -88 91
-135 44 -86 53 -96 66 -75 13 22 42 274 33 295 -4 12 -22 26 -39 33 -76 26
-164 118 -173 182 -2 8 -5 19 -9 24 -3 6 -9 30 -12 55 -3 25 -10 72 -16 104
-11 70 -5 81 50 90 43 7 87 -6 110 -33 34 -38 80 -124 86 -159 13 -69 50 -57
60 18 3 25 12 76 20 115 13 62 13 71 -1 80 -85 56 -145 102 -145 113 0 6 -3
12 -7 12 -19 0 -53 121 -68 242 -6 39 -4 47 12 51 94 26 130 15 163 -51 14
-26 36 -78 50 -117 28 -76 54 -96 63 -48 3 15 16 79 27 141 12 62 20 119 17
127 -3 7 -31 30 -62 49 -43 28 -60 47 -76 84 -27 62 -73 305 -61 326 2 4 27 6
54 4 54 -6 108 -46 108 -80 0 -11 4 -17 9 -13 9 5 27 -31 23 -46 -3 -15 56
-114 71 -117 19 -4 45 49 73 146 33 117 30 134 -25 145 -15 3 -44 22 -64 42
-58 58 -85 169 -72 299 5 60 12 79 35 108 22 27 35 34 53 31 24 -5 80 -79 92
-123 4 -14 18 -54 32 -88 13 -35 22 -66 19 -69 -3 -3 4 -15 15 -26 12 -13 22
-17 28 -11 5 5 23 50 42 99 18 50 39 99 46 110 19 29 16 57 -9 85 -34 38 -78
98 -78 107 0 4 -7 22 -16 38 -11 20 -19 69 -23 145 -9 165 -9 164 47 178 86
20 115 7 141 -66 19 -52 35 -160 32 -214 -1 -21 3 -28 16 -28 13 1 32 30 65
98 76 158 74 150 54 170 -84 85 -113 157 -101 255 3 33 13 73 21 88 8 16 14
40 14 54 0 14 3 24 8 22 4 -3 7 11 7 31 l0 37 58 1 c53 1 60 -1 91 -32 27 -27
34 -43 39 -90 3 -31 1 -80 -5 -110 -18 -91 5 -110 49 -41 15 23 30 44 33 47 3
3 18 23 34 45 16 22 35 45 43 51 15 13 7 44 -12 44 -44 0 -94 110 -101 225 -4
67 -1 95 21 170 26 85 32 111 34 127 2 12 62 20 98 13 38 -7 102 -65 104 -94
5 -59 -7 -162 -19 -170 -5 -3 -11 -25 -15 -48 -8 -69 20 -55 102 49 99 124 98
123 79 145 -61 67 -78 208 -38 323 29 87 108 204 127 189 10 -9 13 -8 13 2 0
10 2 11 8 2 4 -6 14 -13 22 -15 25 -5 59 -58 65 -102 4 -28 0 -62 -14 -106
-23 -75 -30 -141 -16 -146 6 -2 30 21 55 51 25 29 50 54 55 54 12 1 75 101 75
119 0 7 3 12 8 12 4 0 13 14 21 31 21 48 120 142 171 163 25 10 54 22 65 26
25 11 78 28 86 29 4 1 0 -32 -7 -71z m6718 -204 c96 -49 154 -110 207 -214 25
-50 167 -200 189 -200 17 0 11 43 -18 130 -30 94 -31 135 -4 175 13 20 24 40
24 44 0 9 33 23 60 25 8 1 26 -14 39 -34 14 -19 27 -37 31 -40 3 -3 17 -25 29
-50 65 -124 77 -229 40 -331 -12 -33 -26 -59 -30 -59 -22 0 -5 -44 34 -88 23
-26 53 -63 67 -81 14 -19 32 -42 41 -52 16 -19 38 -25 40 -11 0 4 2 15 4 25 2
9 -1 17 -6 17 -6 0 -9 6 -8 13 2 6 -5 36 -14 66 -9 30 -17 72 -17 93 0 49 24
106 47 115 10 4 21 11 25 17 4 6 32 11 63 11 l56 0 36 -105 c28 -81 36 -122
37 -180 1 -107 -26 -192 -76 -234 -40 -35 -46 -50 -25 -63 18 -12 97 -109 97
-120 0 -17 48 -55 60 -48 8 5 10 21 6 44 -16 97 -18 144 -6 187 15 53 37 69
102 77 25 4 52 8 59 9 8 2 14 -7 15 -22 1 -14 10 -50 19 -80 30 -100 35 -124
35 -187 0 -63 -16 -117 -31 -107 -5 3 -6 -2 -3 -10 4 -10 -10 -34 -34 -64
l-41 -48 25 -45 c14 -24 44 -79 67 -122 40 -77 61 -92 63 -46 7 181 36 284 82
296 20 5 49 2 109 -11 23 -4 26 -15 33 -103 13 -149 -15 -245 -99 -346 -28
-34 -38 -53 -32 -65 4 -9 18 -39 30 -66 13 -27 35 -78 50 -114 14 -36 31 -67
37 -69 7 -2 27 42 48 108 45 138 81 207 113 215 36 9 51 -1 78 -57 30 -63 33
-153 10 -263 -17 -80 -53 -126 -122 -158 -24 -10 -43 -26 -43 -34 0 -16 46
-151 75 -217 24 -58 44 -46 80 50 34 91 88 171 121 179 12 3 36 4 55 2 27 -2
34 -7 32 -23 -6 -82 -25 -233 -31 -245 -3 -8 -6 -19 -7 -25 0 -5 -7 -21 -15
-35 -7 -14 -11 -27 -9 -30 2 -2 -23 -26 -56 -52 -33 -27 -63 -54 -67 -61 -6
-12 53 -272 66 -284 11 -11 34 18 40 52 6 32 32 98 59 153 21 43 83 62 146 45
23 -6 23 -8 17 -91 -11 -153 -37 -212 -120 -279 -30 -24 -58 -43 -63 -43 -29
0 -34 -28 -18 -96 29 -121 47 -174 60 -174 7 0 18 21 25 48 17 63 36 99 76
149 39 48 74 59 134 43 40 -11 42 -13 36 -43 -3 -18 -8 -59 -12 -92 -7 -73
-38 -189 -59 -221 -16 -25 -136 -114 -153 -114 -15 0 -24 -36 -18 -68 9 -44
15 -82 28 -162 6 -41 15 -78 21 -82 15 -9 37 2 37 18 0 19 60 138 71 142 5 2
9 10 9 18 0 8 7 17 15 20 8 4 13 9 10 14 -12 19 45 51 99 57 53 5 56 5 56 -16
0 -38 -21 -163 -36 -216 -23 -80 -48 -112 -139 -171 l-85 -55 0 -143 c0 -92 4
-146 11 -153 13 -13 39 -6 39 10 0 26 61 137 72 131 7 -4 8 -3 4 4 -10 17 40
79 75 91 21 7 41 6 76 -4 48 -15 87 -35 68 -35 -5 0 -11 -12 -11 -28 -1 -15
-19 -74 -40 -132 -52 -139 -94 -184 -207 -220 -43 -13 -81 -28 -84 -33 -7 -12
-21 -238 -15 -254 8 -25 32 -12 53 28 11 23 25 47 30 53 5 6 23 29 39 50 37
47 53 59 104 74 41 12 62 6 99 -26 22 -19 22 -23 -5 -52 -13 -13 -24 -35 -26
-50 -5 -48 -44 -165 -64 -193 -33 -46 -89 -68 -179 -70 -71 -2 -80 -4 -84 -22
-17 -85 -36 -238 -31 -250 8 -23 35 -18 45 8 10 25 49 62 106 99 83 56 136 61
202 23 23 -14 43 -29 43 -34 0 -4 -12 -18 -26 -32 -14 -13 -43 -53 -64 -89
-73 -123 -139 -169 -285 -197 -74 -13 -85 -20 -85 -52 0 -14 -7 -44 -14 -66
-23 -66 -30 -115 -16 -115 7 0 38 24 69 53 93 85 172 115 263 98 22 -4 26 -40
11 -92 -40 -137 -160 -227 -365 -273 -53 -11 -53 -12 -71 -66 -28 -87 -49
-181 -42 -198 4 -11 17 -4 53 30 60 56 127 102 173 118 33 12 41 11 75 -7 42
-22 57 -61 32 -88 -24 -26 -57 -69 -80 -105 -26 -38 -97 -92 -114 -85 -6 2
-15 0 -20 -5 -14 -12 -109 -41 -161 -48 l-46 -7 -53 -130 c-47 -114 -64 -175
-49 -175 2 0 30 25 61 55 31 30 84 69 118 86 53 28 68 31 106 25 25 -4 55 -15
68 -26 l23 -19 -33 -56 c-18 -31 -41 -71 -50 -89 -18 -35 -110 -102 -127 -92
-5 3 -11 2 -13 -3 -4 -12 -177 -42 -203 -35 -11 2 -25 1 -31 -3 -10 -7 -94
-140 -94 -149 0 -3 -12 -23 -26 -45 -40 -64 -19 -69 68 -17 93 56 168 88 208
88 24 0 35 -7 50 -32 11 -18 20 -36 20 -40 0 -13 -114 -129 -161 -164 -63 -46
-117 -63 -212 -69 -44 -3 -88 -7 -96 -10 -9 -3 -31 -31 -49 -63 -69 -119 -96
-161 -102 -157 -3 2 -6 -8 -5 -23 1 -30 17 -31 50 -3 33 28 98 67 134 79 52
18 162 15 191 -5 53 -37 53 -44 2 -90 -26 -24 -55 -46 -64 -49 -10 -3 -18 -10
-18 -16 0 -5 -6 -8 -14 -5 -8 3 -17 -1 -20 -9 -3 -8 -12 -14 -19 -14 -8 0 -25
-8 -38 -19 -36 -27 -86 -40 -164 -42 -82 -1 -141 -14 -148 -32 -5 -12 -96
-137 -107 -147 -3 -3 -16 -20 -29 -38 -29 -41 -81 -46 -98 -9 -9 20 -7 29 13
53 13 16 23 35 24 42 0 7 7 15 15 18 8 4 15 13 15 21 0 8 5 11 12 7 7 -4 8 -3
4 5 -5 7 1 20 13 30 12 10 21 23 21 29 0 6 11 22 24 35 14 14 22 28 19 31 -4
3 -1 6 5 6 21 0 13 29 -23 75 -19 25 -38 60 -43 78 -10 37 -6 127 7 172 5 16
15 60 22 97 7 39 17 64 22 61 6 -4 7 -1 3 6 -12 18 2 60 19 57 8 -1 18 -5 21
-9 4 -4 15 -7 24 -7 9 0 27 -19 40 -42 22 -38 25 -57 26 -160 1 -64 5 -122 9
-128 9 -15 31 4 56 49 24 46 38 68 66 108 31 43 29 56 -16 116 -57 75 -75 149
-67 262 4 49 13 122 20 160 12 66 14 70 37 66 87 -12 131 -85 145 -240 3 -36
7 -72 9 -78 9 -27 33 1 51 57 10 32 22 56 26 54 5 -3 8 3 8 13 0 10 7 29 16
41 10 14 13 30 8 40 -4 9 -6 21 -5 25 1 5 -2 6 -7 3 -9 -5 -69 95 -93 154 -14
34 -17 218 -6 300 4 33 7 35 40 33 19 0 47 -9 61 -18 26 -18 82 -86 57 -71 -9
6 -8 1 2 -15 9 -13 18 -40 21 -59 3 -19 10 -52 15 -74 5 -21 7 -44 5 -51 -3
-7 2 -15 10 -18 17 -7 26 6 50 73 8 25 22 63 30 85 22 59 20 78 -13 97 -27 15
-110 128 -112 152 0 6 -3 22 -6 36 -3 14 -6 85 -6 158 -2 131 -2 133 21 139
42 10 101 -4 122 -29 22 -27 60 -180 60 -243 0 -50 22 -78 38 -48 8 14 23 61
37 113 1 3 11 36 23 74 12 37 22 73 22 80 -1 6 -15 20 -33 32 -18 11 -31 26
-29 33 1 7 -2 10 -7 7 -10 -7 -71 49 -71 65 0 5 -4 9 -10 9 -5 0 -9 3 -8 8 0
4 -7 25 -18 47 -14 31 -19 69 -22 167 -4 144 -7 139 72 117 39 -11 100 -65 90
-81 -3 -4 2 -11 11 -14 10 -4 13 -13 9 -26 -4 -12 -2 -18 3 -15 6 4 17 -22 25
-56 12 -49 18 -62 34 -62 19 0 31 46 50 195 l6 45 -58 40 c-42 30 -64 54 -85
94 -26 53 -55 176 -64 275 l-4 48 31 -6 c17 -3 39 -6 49 -6 40 0 105 -98 130
-198 15 -59 31 -79 47 -60 11 14 36 242 29 262 -3 7 -25 18 -48 25 -55 16 -84
43 -115 103 -30 59 -74 194 -74 229 0 15 -7 46 -15 70 -19 52 -9 62 50 53 55
-9 106 -45 130 -90 11 -22 25 -45 32 -51 6 -7 19 -33 28 -58 16 -41 37 -57 48
-37 3 4 8 50 12 103 7 111 7 113 -85 159 -115 58 -174 142 -186 265 -3 28 -16
76 -28 107 -23 56 -23 58 -5 63 28 9 79 -4 112 -29 31 -23 73 -85 126 -188 52
-103 62 -93 55 55 -3 67 -9 144 -13 172 l-6 50 -50 7 c-84 12 -121 35 -166
102 -22 34 -42 71 -45 84 -4 12 -10 22 -14 22 -5 0 -12 15 -16 33 -3 17 -22
56 -40 85 l-34 52 43 0 c103 0 174 -49 247 -170 23 -39 47 -67 52 -64 12 7 6
71 -17 203 -19 110 -19 111 -47 111 -31 0 -167 83 -212 129 -42 43 -49 55 -96
149 -49 100 -52 112 -32 113 38 4 86 -3 118 -17 41 -17 114 -81 114 -99 0 -7
4 -15 8 -17 4 -1 18 -20 31 -40 24 -41 33 -45 49 -25 13 15 -30 181 -56 217
-11 15 -45 34 -82 48 -74 27 -108 49 -176 116 -73 72 -186 223 -169 227 3 1 9
2 14 3 5 0 13 4 17 9 13 12 100 8 137 -8 20 -8 69 -52 114 -100 43 -47 81 -85
86 -85 16 0 5 64 -29 159 -34 95 -64 148 -77 135 -11 -12 -148 45 -202 85 -57
40 -102 87 -168 175 -41 55 -40 58 27 77 69 19 125 4 204 -57 103 -78 111 -74
62 35 -58 126 -51 120 -158 135 -18 3 -59 19 -91 36 -58 31 -191 135 -191 149
0 4 -17 27 -37 50 l-37 43 25 19 c13 10 43 21 67 25 36 5 53 2 100 -22 31 -16
59 -32 60 -36 2 -4 10 -8 17 -8 8 0 29 -15 49 -32 77 -72 81 -38 11 88 -31 54
-62 105 -68 111 -7 7 -53 20 -102 28 -127 21 -215 68 -310 162 -41 41 -73 79
-70 84 10 15 85 30 139 28 57 -2 89 -15 159 -65 79 -57 96 -42 52 45 -42 83
-84 139 -113 149 -19 6 -41 5 -72 -4 -37 -11 -54 -11 -100 0 -30 8 -72 17 -92
20 -42 8 -126 56 -196 112 -82 67 -80 63 -47 91 39 31 90 53 126 53 32 0 202
-59 207 -72 6 -14 42 -9 42 7 0 16 -27 50 -102 127 l-48 49 -112 4 c-62 3
-135 10 -163 16 -47 11 -104 35 -115 48 -3 3 -25 19 -49 36 -24 16 -51 41 -59
55 -9 14 -21 28 -27 32 -5 4 17 19 48 34 52 23 66 25 124 19 59 -6 172 -45
197 -67 16 -13 36 -9 36 7 0 35 -105 164 -160 198 -28 17 -99 16 -144 -2 -25
-10 -86 -13 -171 -10 -30 1 -105 30 -148 56 -44 28 -137 116 -137 131 0 26 48
64 90 72 80 15 142 5 225 -34 60 -29 80 -34 91 -25 23 19 17 32 -53 101 -48
46 -78 68 -103 73 -78 15 -159 49 -204 85 -43 35 -88 134 -111 247 l-6 31 68
-20 c37 -11 80 -27 95 -34z m-2242 -156 c3 -362 -2 -1220 -7 -1253 -4 -36 -10
-45 -25 -45 -11 0 -17 -4 -14 -8 2 -4 -8 -9 -23 -10 -27 -2 -28 0 -35 59 -3
34 -6 308 -6 608 0 412 -3 550 -12 559 -9 9 -251 12 -1030 12 -996 0 -1018 0
-1028 -19 -7 -13 -10 -277 -10 -783 -1 -420 -5 -782 -9 -806 -9 -47 -19 -62
-43 -66 -21 -3 -45 -28 -50 -52 -11 -51 -18 402 -18 1073 1 572 4 743 13 746
7 3 526 6 1155 6 l1142 1 0 -22z m1141 -859 c78 -33 134 -73 174 -126 45 -59
58 -110 52 -203 -5 -84 -46 -193 -101 -268 -17 -24 -40 -60 -51 -81 -31 -60
-105 -158 -164 -220 -29 -31 -67 -76 -84 -101 -17 -25 -46 -64 -65 -87 l-34
-43 90 -87 c205 -201 329 -435 372 -706 16 -96 8 -307 -15 -392 -66 -248 -225
-450 -429 -544 -110 -51 -189 -65 -371 -65 -228 -1 -420 35 -763 145 -259 83
-422 131 -594 173 -121 29 -267 41 -370 28 -161 -20 -292 -103 -356 -227 -22
-42 -26 -63 -26 -130 0 -66 4 -89 27 -135 34 -70 98 -145 118 -138 8 3 63 77
122 164 59 88 137 200 172 249 35 50 64 95 64 101 2 32 -223 27 -314 -7 -50
-18 -50 -18 -25 1 51 40 139 62 269 67 119 6 124 5 116 -13 -14 -36 -17 -54
-9 -54 5 0 19 -3 31 -6 17 -5 23 0 34 30 7 20 18 36 24 36 15 0 176 -39 186
-46 5 -3 -1 -19 -14 -35 -24 -33 -28 -33 -120 -5 l-47 15 -52 -77 c-29 -42
-56 -81 -60 -87 -5 -5 -47 -66 -95 -135 -47 -69 -115 -165 -150 -215 -34 -49
-67 -97 -73 -106 -8 -13 16 -45 116 -160 69 -79 129 -145 134 -147 5 -2 50 54
102 123 51 70 179 242 284 383 140 189 188 260 180 268 -6 6 -48 26 -93 45
-46 19 -83 38 -83 42 0 4 6 23 14 42 l15 34 63 -20 c106 -35 148 -51 148 -59
0 -4 -7 -29 -15 -56 -15 -51 -13 -58 21 -68 18 -5 23 1 38 49 11 37 22 55 33
55 19 0 164 -49 175 -59 9 -8 -21 -121 -32 -121 -5 0 -38 14 -75 30 -37 17
-73 30 -80 30 -11 0 -72 -75 -149 -185 -8 -11 -78 -105 -156 -210 l-141 -190
28 -23 c192 -159 285 -330 285 -526 1 -168 -88 -349 -213 -435 -94 -65 -161
-85 -296 -89 -150 -4 -235 12 -428 80 -264 94 -308 109 -384 129 -106 28 -277
36 -362 16 -131 -31 -228 -89 -282 -169 -32 -48 -36 -107 -12 -166 16 -37 52
-82 66 -82 4 0 21 23 39 50 20 31 39 50 51 50 16 0 19 8 19 51 0 43 6 60 36
101 19 27 39 60 44 73 15 41 183 57 298 28 22 -5 22 -6 6 -32 -30 -48 -39 -50
-106 -30 l-62 20 -23 -28 c-62 -75 -73 -107 -73 -202 l0 -91 -45 0 c-49 0 -55
-4 -102 -77 -71 -107 -328 -484 -428 -628 -62 -88 -165 -239 -231 -335 -65
-96 -145 -213 -177 -260 -32 -47 -97 -142 -145 -212 -48 -70 -97 -142 -109
-159 -50 -70 -31 -72 147 -12 198 66 356 168 530 343 108 108 144 151 229 275
94 138 101 153 101 229 0 243 141 548 376 812 46 52 90 88 159 129 52 32 100
64 106 71 17 21 -3 40 -62 59 -43 15 -49 20 -43 38 10 34 33 67 47 67 6 0 56
-14 110 -32 88 -28 98 -34 93 -52 -20 -81 -37 -129 -53 -150 -10 -14 -63 -52
-119 -85 -102 -61 -136 -92 -231 -215 l-23 -28 46 -52 c65 -75 98 -147 102
-229 6 -93 -8 -137 -96 -316 l-77 -156 0 -105 c0 -97 2 -109 28 -152 15 -27
31 -48 35 -48 4 0 18 -9 32 -20 l25 -19 -30 -11 c-19 -7 -52 -9 -90 -4 -53 6
-65 11 -102 48 -79 79 -93 229 -43 466 21 105 26 214 10 256 -13 34 -22 25
-48 -51 -28 -80 -46 -198 -38 -258 5 -50 -8 -89 -54 -157 -9 -14 -37 -56 -62
-95 -215 -335 -565 -608 -883 -691 -88 -22 -254 -44 -342 -44 l-44 0 124 183
c68 100 141 207 162 237 21 30 74 107 116 170 43 63 129 188 191 278 62 89
149 218 193 285 44 67 85 129 92 137 44 53 213 308 213 320 0 9 -29 28 -73 48
-89 40 -160 106 -204 188 -41 76 -54 137 -54 244 1 141 45 253 139 352 75 79
146 124 261 166 93 34 100 35 246 36 138 1 157 -1 239 -27 102 -33 88 -40 168
78 30 44 89 130 131 191 42 62 77 116 77 120 0 5 -26 27 -57 48 -256 178 -389
438 -369 721 27 385 289 685 694 792 82 22 120 26 242 27 161 1 228 -11 409
-70 85 -29 107 -33 117 -22 7 7 54 74 105 148 80 117 315 457 386 559 14 21
20 38 14 44 -4 4 -60 18 -122 29 -183 32 -453 30 -684 -5 -99 -16 -187 -30
-196 -33 -11 -3 -24 7 -39 30 -43 70 -136 126 -208 126 -54 -1 -118 -33 -142
-72 -32 -53 -24 -155 14 -180 15 -10 38 -10 55 1 12 8 11 13 -6 35 -25 32 -20
69 15 96 30 24 53 25 98 4 136 -65 156 -220 44 -347 -47 -54 -174 -136 -284
-185 -193 -86 -384 -134 -661 -168 l-141 -17 -41 27 c-25 16 -47 25 -55 21 -7
-4 -52 -34 -100 -67 -135 -91 -217 -118 -291 -96 l-42 13 59 5 c33 3 61 10 63
15 1 6 -11 18 -27 27 -17 9 -30 24 -30 33 0 14 3 14 30 0 16 -8 51 -15 78 -15
40 0 59 7 108 39 32 22 72 50 89 64 l29 24 -77 83 c-42 46 -76 86 -76 89 4 17
563 548 614 584 218 152 351 227 565 319 211 91 492 165 750 199 203 27 685 8
806 -32 32 -10 48 -14 119 -29 22 -5 55 -14 74 -19 19 -6 35 -10 36 -8 24 35
189 275 212 307 18 25 63 90 100 145 37 55 71 105 75 110 4 6 31 41 60 80 28
38 63 80 77 92 31 28 115 73 156 84 53 14 177 3 236 -22z m-5461 -268 c7 -9
64 -35 73 -33 4 1 7 -2 7 -7 0 -5 10 -11 23 -15 13 -3 61 -27 108 -54 46 -27
121 -68 167 -91 45 -24 82 -47 82 -53 0 -5 5 -6 10 -3 6 3 10 3 10 -2 0 -4 15
-14 33 -22 77 -32 97 -43 97 -53 0 -6 3 -9 6 -5 3 3 34 -9 67 -28 34 -18 95
-51 135 -72 39 -22 69 -43 65 -48 -5 -4 0 -5 10 -2 9 4 17 2 17 -2 0 -5 19
-16 43 -24 23 -8 41 -20 39 -26 -1 -7 2 -10 7 -7 5 4 36 -10 69 -29 33 -19 63
-35 67 -35 4 0 26 -13 49 -28 36 -24 69 -42 86 -46 5 -2 29 -15 95 -53 22 -13
52 -28 68 -34 15 -6 27 -15 27 -21 0 -5 4 -7 9 -4 5 3 11 -1 15 -9 3 -8 12
-12 21 -9 8 3 15 2 15 -2 0 -5 23 -20 50 -33 28 -14 50 -29 50 -33 0 -4 7 -8
15 -8 8 0 15 -5 15 -11 0 -5 4 -8 9 -5 5 3 12 -1 15 -9 8 -22 7 -30 -4 -31 -5
-1 -15 -2 -20 -3 -6 0 -9 -7 -8 -13 6 -26 -54 -8 -173 52 -66 34 -139 72 -162
86 -23 13 -67 37 -97 52 -30 15 -57 29 -60 32 -3 3 -30 18 -60 34 -59 31 -219
118 -335 181 -38 21 -97 53 -130 70 -33 17 -87 47 -120 65 -33 18 -94 51 -135
73 -41 21 -88 47 -105 57 -86 50 -206 110 -222 110 -21 0 -66 -61 -107 -145
-16 -33 -33 -62 -37 -65 -4 -3 -26 -39 -49 -80 -23 -41 -58 -102 -77 -135 -20
-33 -52 -88 -72 -122 -20 -34 -89 -153 -154 -265 -65 -112 -122 -210 -127
-218 -4 -8 -29 -49 -54 -91 -25 -41 -59 -102 -76 -135 -17 -32 -37 -66 -45
-74 -7 -8 -25 -37 -39 -65 -50 -94 -89 -160 -98 -163 -4 -2 -8 -9 -8 -16 0 -7
-11 -27 -25 -46 -31 -42 -47 -97 -35 -120 5 -9 95 -63 201 -119 217 -117 271
-146 314 -171 17 -10 68 -38 115 -63 143 -75 353 -189 385 -208 17 -10 50 -29
75 -41 48 -25 112 -60 394 -213 98 -53 195 -104 215 -113 20 -9 38 -20 41 -23
6 -6 119 -70 203 -114 43 -23 54 -33 44 -41 -10 -10 -128 -74 -467 -256 -41
-23 -140 -76 -220 -120 -80 -44 -161 -88 -180 -98 -86 -45 -156 -83 -165 -90
-5 -4 -64 -36 -130 -70 -66 -34 -158 -84 -205 -110 -279 -154 -356 -196 -520
-283 -95 -50 -113 -65 -106 -92 7 -29 33 -84 56 -120 10 -16 37 -61 60 -100
51 -88 59 -101 88 -149 14 -22 38 -65 55 -95 16 -31 42 -76 57 -101 56 -92
156 -263 187 -318 17 -31 35 -62 40 -67 4 -6 21 -35 37 -65 16 -30 34 -62 41
-70 7 -8 25 -40 40 -70 15 -29 35 -65 45 -80 29 -43 81 -132 118 -200 19 -36
42 -76 52 -90 9 -14 29 -47 45 -75 38 -70 74 -115 91 -115 8 0 74 32 147 71
375 204 446 239 472 239 9 0 23 7 31 15 20 20 38 19 30 -1 -3 -9 -6 -22 -6
-29 0 -8 -9 -17 -20 -20 -11 -4 -18 -10 -15 -15 3 -5 -4 -12 -16 -15 -17 -6
-19 -9 -8 -16 10 -6 8 -9 -8 -9 -13 0 -23 -4 -23 -8 0 -4 -13 -13 -30 -19 -17
-6 -30 -19 -30 -28 0 -11 -5 -15 -14 -12 -8 3 -20 0 -26 -8 -6 -8 -25 -17 -41
-20 -16 -4 -31 -11 -34 -16 -4 -5 2 -6 12 -3 10 3 -11 -9 -47 -27 -36 -17 -68
-36 -71 -42 -4 -5 -13 -6 -20 -2 -8 5 -11 4 -7 0 7 -8 -152 -99 -282 -163 -30
-14 -61 -32 -68 -39 -7 -7 -17 -13 -20 -13 -8 0 -37 43 -33 49 2 2 -1 7 -6 10
-8 5 -39 56 -82 136 -9 17 -35 62 -58 100 -22 39 -47 82 -54 97 -8 15 -44 78
-82 141 -37 63 -67 118 -67 122 0 3 -13 25 -29 48 -15 23 -52 85 -81 137 -46
83 -110 195 -236 413 -19 32 -31 64 -27 70 3 7 3 9 -2 5 -8 -7 -141 211 -193
317 -8 17 -21 38 -29 47 -8 9 -12 21 -9 27 4 5 0 13 -8 18 -19 11 -78 122 -70
134 3 5 0 8 -7 7 -13 -3 -30 46 -23 66 6 16 308 192 369 215 5 2 19 11 29 20
16 13 18 13 11 1 -8 -13 -6 -13 8 -2 9 8 31 22 49 31 110 60 155 86 171 99 9
8 17 12 17 7 0 -4 12 1 28 11 15 10 50 30 77 45 28 15 77 41 110 60 33 18 87
47 120 64 33 17 79 43 103 58 23 15 47 25 52 22 6 -4 10 -1 10 4 0 6 6 11 14
11 8 0 21 6 28 13 7 7 27 20 43 28 17 9 66 35 110 59 144 79 200 110 215 117
8 4 44 23 80 44 79 44 237 129 267 143 28 14 30 43 3 51 -11 3 -20 11 -20 16
0 5 -6 9 -14 9 -13 0 -127 57 -136 69 -3 3 -41 25 -85 47 -44 23 -100 53 -125
66 -87 48 -195 106 -230 124 -19 11 -37 22 -40 25 -3 4 -40 23 -82 43 -43 20
-78 41 -78 46 0 6 -3 9 -7 8 -9 -3 -125 51 -133 62 -3 3 -39 23 -80 44 -41 21
-79 41 -85 46 -5 4 -64 35 -130 70 -66 34 -122 65 -125 69 -3 3 -53 31 -112
61 -59 30 -108 58 -108 63 0 4 -6 7 -14 7 -8 0 -45 17 -83 38 -66 38 -167 94
-209 116 -11 6 -18 18 -16 25 3 8 0 11 -7 7 -17 -11 -13 2 20 62 17 32 47 86
67 122 19 36 49 88 67 115 17 28 46 77 64 110 18 33 51 91 73 130 92 158 196
338 268 460 100 169 123 210 156 270 15 28 53 93 85 146 33 54 59 102 59 108
0 6 3 11 8 11 4 0 16 18 26 40 11 22 24 40 29 40 6 0 8 3 4 6 -3 3 10 30 29
60 19 29 45 73 57 96 13 24 38 69 57 100 30 51 36 56 54 46 12 -6 23 -14 26
-17z m6392 -42 c15 -24 32 -54 38 -67 5 -13 23 -43 40 -66 16 -24 26 -46 23
-50 -4 -3 -1 -6 5 -6 7 0 12 -5 12 -11 0 -7 15 -35 34 -63 31 -48 159 -264
195 -331 38 -70 76 -130 84 -136 5 -4 7 -11 3 -17 -3 -5 1 -13 10 -16 8 -3 13
-10 10 -15 -4 -5 -3 -11 1 -13 10 -4 63 -85 63 -95 0 -5 16 -32 35 -61 20 -28
32 -52 28 -52 -5 0 -3 -4 3 -8 6 -4 21 -26 33 -49 11 -23 25 -45 31 -48 6 -4
8 -11 5 -16 -4 -5 -3 -9 2 -9 4 0 24 -29 43 -65 19 -36 38 -65 43 -65 4 0 7
-6 7 -12 0 -7 18 -41 40 -76 22 -34 40 -65 40 -69 0 -6 84 -148 137 -230 18
-29 33 -54 33 -57 0 -2 20 -39 45 -82 25 -44 45 -84 45 -89 0 -6 -26 -24 -57
-40 -32 -17 -60 -32 -63 -36 -3 -3 -27 -17 -55 -31 -69 -34 -146 -76 -159 -86
-6 -5 -54 -31 -106 -58 -52 -27 -97 -51 -100 -54 -5 -6 -138 -76 -240 -127
-30 -16 -57 -30 -60 -34 -3 -3 -21 -13 -40 -22 -19 -9 -71 -38 -115 -62 -44
-25 -96 -53 -115 -63 -19 -9 -37 -19 -40 -22 -3 -3 -34 -20 -70 -39 -71 -37
-172 -90 -265 -141 -33 -18 -63 -38 -67 -44 -4 -6 -10 -7 -14 -4 -4 4 -19 -1
-34 -12 -16 -11 -33 -20 -40 -20 -6 0 -18 -7 -27 -15 -8 -8 -19 -12 -25 -9 -6
4 -8 3 -5 -2 3 -6 -29 -27 -71 -49 -42 -21 -79 -41 -82 -44 -3 -3 -23 -15 -44
-26 -22 -11 -41 -25 -43 -32 -4 -11 39 -38 177 -111 41 -21 95 -50 120 -64 25
-13 83 -44 130 -68 47 -24 103 -55 125 -69 22 -14 60 -36 85 -48 66 -34 115
-64 118 -74 2 -5 8 -6 13 -3 6 3 21 -2 36 -11 14 -9 53 -32 87 -50 120 -63
201 -108 206 -114 3 -3 46 -26 95 -51 50 -24 117 -59 150 -78 59 -34 177 -98
265 -143 25 -13 47 -26 50 -29 3 -3 10 -6 15 -7 24 -4 164 -91 158 -97 -4 -4
0 -4 9 -1 8 3 23 -1 32 -10 9 -9 16 -13 16 -8 0 4 5 1 10 -9 11 -17 4 -37 -40
-118 -13 -25 -25 -49 -25 -55 -1 -5 -7 -9 -14 -7 -7 1 -10 -1 -7 -6 6 -10 -56
-132 -92 -179 -13 -18 -22 -33 -18 -33 3 0 -15 -34 -39 -76 -25 -42 -45 -79
-45 -83 0 -3 -19 -38 -43 -76 -24 -39 -49 -85 -56 -102 -8 -19 -18 -30 -25
-26 -6 3 -8 3 -4 -1 6 -7 -55 -132 -71 -146 -3 -3 -19 -32 -36 -65 -16 -33
-41 -78 -55 -100 -14 -22 -32 -53 -40 -70 -8 -16 -17 -32 -20 -35 -3 -3 -21
-34 -39 -70 -19 -36 -40 -72 -47 -81 -8 -8 -14 -19 -14 -22 0 -4 -23 -49 -52
-99 -28 -51 -62 -113 -76 -138 -13 -25 -32 -58 -42 -75 -56 -95 -105 -181
-105 -185 0 -3 -15 -29 -34 -58 -32 -51 -48 -61 -67 -43 -5 5 -72 41 -149 81
-77 39 -142 75 -145 78 -3 4 -44 27 -93 52 -48 25 -95 50 -105 55 -26 15 -266
146 -330 180 -32 17 -59 32 -62 35 -3 3 -14 12 -24 20 -18 13 -19 13 -11 0 8
-13 6 -13 -8 -2 -9 8 -47 29 -84 48 -37 19 -90 48 -118 65 -27 17 -97 56 -155
86 -58 29 -134 70 -170 90 -72 40 -182 99 -287 155 -38 20 -107 57 -152 82
-46 25 -92 46 -102 46 -18 0 -19 -31 -19 -1144 l0 -1144 -342 -6 c-816 -14
-1953 -21 -1960 -11 -9 13 -11 940 -2 1149 l7 159 18 -34 c13 -23 19 -29 20
-16 1 9 2 23 3 30 0 6 8 12 16 12 8 0 20 4 27 8 17 11 20 -62 22 -592 1 -261
4 -485 7 -497 l6 -24 1028 0 c928 0 1028 2 1034 16 3 9 6 524 6 1144 0 711 4
1131 10 1135 5 3 37 -9 71 -27 102 -54 210 -113 279 -150 36 -20 144 -78 240
-130 96 -53 195 -107 220 -121 46 -25 124 -67 260 -139 41 -22 80 -43 85 -48
6 -4 44 -25 85 -47 105 -56 464 -249 568 -305 48 -26 129 -69 180 -95 l94 -48
29 34 c16 19 38 53 49 75 11 23 52 95 90 160 39 66 70 121 70 122 0 2 13 22
29 46 16 24 38 59 48 78 11 19 45 79 76 133 32 54 57 102 57 107 0 6 5 10 10
10 6 0 10 6 10 13 0 8 13 32 29 54 16 22 44 69 62 104 18 35 37 66 41 67 4 2
8 7 8 12 0 4 27 54 60 109 33 56 60 105 60 110 0 5 7 14 15 21 9 7 23 29 32
49 9 20 28 54 42 76 14 22 34 56 44 75 27 54 44 82 54 89 19 14 83 151 83 179
0 31 -17 44 -135 107 -22 12 -71 39 -110 60 -38 21 -101 55 -140 75 -118 63
-187 101 -245 135 -30 18 -102 57 -160 87 -58 31 -125 67 -150 80 -44 25 -125
68 -277 149 -43 23 -91 49 -108 59 -16 10 -59 33 -95 52 -36 20 -92 50 -125
68 -33 19 -94 52 -135 74 -41 22 -105 56 -141 75 -36 20 -85 47 -110 60 -74
39 -75 41 -27 69 24 13 75 40 113 60 39 20 77 41 85 47 8 7 67 39 130 72 102
53 292 157 505 275 39 22 82 44 98 51 15 6 27 15 27 19 0 4 5 8 11 8 9 0 239
121 349 183 19 11 67 37 105 57 39 21 129 70 200 109 72 39 174 94 229 123
109 58 127 79 104 125 -33 64 -82 150 -112 197 -18 28 -35 58 -39 66 -4 8 -11
22 -17 30 -25 39 -120 202 -120 205 0 3 -16 29 -35 59 -19 30 -35 57 -35 60 0
5 -84 151 -119 206 -9 14 -21 34 -27 45 -10 18 -121 210 -294 505 -37 63 -92
157 -121 208 -35 60 -62 94 -76 98 -20 5 -61 -14 -243 -114 -130 -71 -384
-203 -443 -231 -77 -36 -103 -37 -68 -2 13 13 21 31 18 40 -3 12 3 17 21 19
29 2 43 13 25 19 -17 6 9 33 32 33 9 0 14 4 11 8 -3 5 10 15 29 22 19 7 32 17
29 22 -3 4 4 8 16 8 12 0 19 4 16 9 -4 5 4 7 16 3 14 -3 19 -2 14 6 -4 7 -1
12 8 12 9 0 16 5 16 11 0 5 4 8 9 5 5 -4 11 -3 13 2 3 8 127 83 143 87 16 3
69 29 75 36 6 6 142 82 205 113 22 11 43 25 47 30 4 6 8 7 8 3 0 -5 10 -1 22
7 30 21 38 17 70 -35z m-2099 -2609 c4 -3 1 -33 -6 -66 l-14 -59 -37 3 c-20 2
-60 11 -89 21 -58 18 -60 25 -38 108 l11 41 83 -21 c45 -11 85 -23 90 -27z
m226 -42 l51 -11 0 -53 c0 -29 -4 -55 -8 -58 -8 -4 -120 7 -190 19 -31 6 -32
7 -27 43 15 90 10 85 70 78 29 -3 76 -11 104 -18z m242 -34 c16 -9 10 -53 -9
-63 -10 -5 -42 -13 -70 -17 l-52 -7 0 53 0 53 61 -7 c33 -3 65 -8 70 -12z
m214 7 c-17 -15 -134 -53 -145 -46 -5 3 -10 15 -10 25 0 17 9 20 73 23 39 1
76 4 82 5 6 1 6 -1 0 -7z m-2205 -1570 c90 -30 89 -29 83 -84 l-6 -48 -40 6
c-45 8 -136 37 -138 45 -1 3 2 29 6 58 4 34 11 52 19 49 6 -2 40 -14 76 -26z
m295 -77 c55 -9 116 -18 135 -21 l35 -5 -27 -14 c-37 -19 -140 -32 -220 -26
-71 5 -78 11 -78 71 0 20 3 23 28 17 15 -3 72 -13 127 -22z m-1287 -626 c26
-26 11 -65 -67 -184 -43 -65 -144 -219 -224 -340 -103 -156 -152 -223 -169
-227 -31 -9 -68 17 -68 49 0 15 45 92 113 197 63 95 162 246 222 337 59 91
113 168 119 172 17 12 61 9 74 -4z m-1798 -2135 c0 -5 27 -23 60 -42 32 -19
57 -38 54 -43 -3 -5 -2 -7 3 -6 4 1 18 -1 30 -5 17 -6 20 -14 17 -34 -3 -14
-11 -35 -19 -46 -7 -10 -11 -26 -8 -33 3 -8 1 -14 -4 -14 -6 0 -16 -31 -23
-70 -7 -38 -16 -70 -19 -70 -4 0 -7 -9 -8 -21 -2 -18 3 -16 41 15 24 19 47 32
51 28 5 -4 5 -2 2 4 -4 7 22 38 63 74 l70 62 47 -31 c27 -17 53 -35 59 -40 6
-5 25 -16 43 -25 l32 -17 -18 -30 c-10 -17 -25 -38 -33 -47 -8 -9 -22 -30 -30
-45 -8 -16 -24 -40 -37 -53 -12 -13 -20 -24 -17 -24 8 0 -16 -39 -52 -87 -19
-25 -34 -50 -34 -57 0 -7 -12 -28 -28 -45 l-27 -32 -25 23 c-13 13 -26 22 -27
20 -8 -7 -63 31 -63 44 0 9 5 12 12 8 6 -4 8 -3 5 3 -6 9 82 156 102 173 9 7
41 58 41 65 0 16 -27 0 -73 -44 -86 -82 -131 -122 -159 -142 -26 -19 -27 -19
-40 -1 -7 11 -17 20 -23 22 -20 4 -60 29 -48 30 7 0 10 6 7 13 -2 7 17 79 44
160 27 81 45 150 41 153 -4 2 -14 -6 -20 -18 -7 -13 -26 -48 -41 -78 -16 -30
-33 -57 -37 -60 -4 -3 -16 -20 -26 -37 -11 -18 -23 -33 -28 -33 -4 0 -5 -5 -2
-10 3 -6 -1 -13 -9 -16 -9 -3 -13 -10 -10 -15 3 -5 -6 -4 -20 3 -14 6 -26 15
-26 19 0 5 -7 5 -17 2 -11 -4 -14 -3 -9 5 4 7 1 12 -6 12 -32 0 -36 21 -11 66
14 24 29 44 34 44 5 0 8 3 8 8 -3 17 2 35 7 29 4 -4 17 15 29 41 12 26 28 54
36 62 23 23 61 79 63 93 3 16 59 96 69 97 4 0 7 -3 7 -7z m6406 -43 c27 -37
64 -54 64 -29 0 5 5 7 10 4 6 -3 10 -1 10 4 0 23 29 10 48 -21 l21 -33 -30
-18 c-16 -11 -29 -24 -29 -31 0 -14 79 -125 103 -144 14 -12 21 -11 48 2 39
20 39 20 39 1 0 -8 4 -15 9 -15 23 0 20 -35 -5 -62 -15 -15 -29 -26 -32 -24
-2 3 -13 -5 -24 -16 -12 -12 -28 -18 -39 -15 -10 3 -17 1 -13 -4 8 -13 -10
-11 -25 4 -11 10 -13 9 -7 -1 6 -10 2 -10 -18 0 -14 6 -26 14 -26 18 0 4 -25
39 -55 79 -30 40 -59 80 -64 89 -9 15 -11 15 -30 -2 -12 -11 -23 -17 -24 -15
-2 2 -14 19 -26 37 l-23 33 21 15 c25 18 25 36 2 89 l-18 40 31 27 c17 15 36
27 42 28 5 0 23 -18 40 -40z m-159 -237 c35 -19 86 -81 78 -94 -3 -4 0 -11 6
-15 8 -4 9 -3 5 4 -4 7 -5 12 -2 12 3 0 14 -21 26 -47 11 -26 24 -50 28 -53 9
-7 52 -68 52 -74 0 -7 -111 -78 -115 -74 -8 9 -74 119 -90 151 -11 20 -23 37
-27 37 -5 0 -8 6 -8 14 0 16 -44 29 -70 21 -18 -6 -30 -33 -30 -70 0 -11 27
-66 59 -122 l60 -102 -57 -31 c-30 -16 -58 -27 -61 -22 -36 49 -84 130 -84
140 0 6 -3 12 -7 12 -3 0 -14 15 -25 33 -10 17 -22 34 -25 37 -4 3 -17 24 -28
46 l-21 42 37 26 c43 29 67 33 76 11 9 -24 21 -17 35 20 7 19 21 40 32 45 10
6 19 16 19 23 0 11 68 44 95 46 6 1 25 -7 42 -16z m-5610 -235 c71 -26 139
-93 149 -146 7 -37 -9 -116 -28 -139 -8 -10 -15 -10 -32 -1 -11 7 -27 13 -35
14 -8 2 -17 6 -20 11 -3 4 -34 21 -68 37 -34 16 -59 34 -56 39 3 6 1 7 -6 3
-6 -4 -18 -2 -26 4 -22 18 -35 3 -35 -39 0 -24 8 -47 20 -61 11 -13 20 -20 20
-17 0 4 12 2 26 -3 19 -7 33 -6 56 6 23 12 33 13 38 4 4 -6 9 -11 11 -9 2 1
23 -8 47 -20 l43 -22 -30 -25 c-50 -42 -82 -48 -148 -29 -79 23 -106 38 -154
88 -70 72 -76 118 -26 216 55 106 135 134 254 89z m5204 -11 c24 -4 40 -18 33
-29 -4 -6 -3 -8 3 -5 5 4 21 -6 35 -21 28 -30 56 -78 40 -68 -6 3 -12 2 -14
-2 -3 -8 -172 -92 -186 -92 -4 0 -17 -8 -30 -18 -21 -16 -22 -21 -11 -45 20
-45 70 -48 122 -6 16 11 27 30 27 44 0 17 12 30 43 48 60 35 74 32 75 -15 2
-44 -7 -66 -42 -102 -41 -40 -78 -62 -144 -85 -79 -27 -128 -17 -183 37 -55
56 -76 110 -69 177 5 47 12 61 46 96 21 22 54 49 72 60 34 22 114 39 148 32
11 -2 27 -5 35 -6z m-4584 -109 c29 -13 53 -27 53 -31 0 -22 -44 -106 -53
-100 -6 3 -7 1 -3 -6 8 -12 -24 -101 -36 -101 -4 0 -5 -6 -2 -14 3 -8 -6 -36
-20 -63 -14 -26 -26 -51 -26 -54 0 -4 -8 -24 -17 -45 -9 -22 -17 -41 -18 -44
-8 -39 -18 -50 -37 -44 -61 19 -87 35 -82 49 4 8 3 22 0 30 -5 14 -8 14 -31
-1 -32 -21 -91 -13 -144 20 -56 36 -69 91 -46 186 15 61 25 79 66 121 l49 51
58 -6 c31 -3 63 -6 70 -7 7 -1 27 -20 44 -41 31 -40 53 -40 53 0 0 9 6 16 13
14 8 -1 11 2 7 8 -8 13 26 100 40 100 6 0 34 -10 62 -22z m191 -71 c6 -5 12
-7 12 -4 0 3 13 1 29 -4 28 -10 29 -13 19 -37 -24 -55 -32 -57 -118 -25 -8 4
-18 5 -22 5 -11 -3 -10 16 2 23 5 3 6 13 3 22 -4 10 -2 14 4 10 7 -5 9 0 6 14
-5 18 -2 19 23 13 16 -4 35 -11 42 -17z m3944 -3 c7 -4 8 -3 4 4 -15 24 6 11
44 -28 22 -22 43 -53 47 -68 3 -15 20 -58 36 -97 49 -118 50 -124 19 -136 -15
-6 -42 -18 -60 -27 -17 -8 -34 -13 -35 -11 -3 4 -26 63 -68 173 -32 86 -63
104 -106 64 -30 -28 -29 -52 7 -137 17 -40 28 -77 24 -83 -4 -6 -3 -8 3 -5 6
4 13 -5 15 -22 4 -24 0 -32 -21 -41 -14 -7 -34 -16 -43 -21 -40 -20 -53 -11
-78 59 -14 37 -24 73 -24 79 1 7 -2 11 -6 8 -4 -3 -11 11 -14 30 -9 48 -45 72
-85 55 -49 -20 -48 -54 9 -184 11 -27 19 -55 16 -63 -3 -7 -1 -13 4 -13 6 0
10 -8 10 -17 0 -13 -18 -24 -59 -39 l-59 -22 -22 62 c-12 33 -27 75 -35 91 -7
17 -27 66 -43 110 l-31 80 21 17 c11 10 24 16 28 13 5 -3 11 -1 15 5 11 17 43
11 50 -10 9 -27 21 -25 37 7 7 15 32 42 56 60 48 36 90 42 132 18 31 -18 40
-18 40 -2 1 16 58 72 94 91 28 14 55 14 78 0z m-3992 -134 c46 -15 56 -23 58
-44 2 -15 -2 -26 -8 -26 -6 0 -8 -4 -5 -10 3 -5 0 -20 -7 -32 -6 -13 -13 -32
-15 -43 -2 -11 -8 -21 -13 -23 -6 -2 -10 -12 -10 -22 0 -9 -7 -37 -16 -61 -9
-24 -17 -54 -19 -67 -4 -38 -20 -48 -58 -34 -17 6 -45 13 -61 16 -28 5 -49 16
-29 16 5 0 10 6 11 13 1 23 109 338 115 337 1 -1 27 -9 57 -20z m392 -112 c43
-18 103 -68 82 -68 -5 0 -3 -4 5 -9 7 -5 16 -29 18 -55 6 -53 1 -55 -67 -31
-23 8 -46 13 -50 10 -4 -2 -7 3 -7 13 0 41 -4 51 -23 57 -11 4 -18 11 -15 16
5 8 -18 6 -82 -7 -15 -3 -25 -14 -29 -32 -4 -15 -9 -31 -12 -37 -4 -5 -8 -28
-10 -51 -4 -52 20 -82 70 -90 31 -5 41 -2 63 21 21 20 34 25 54 20 50 -11 81
-27 81 -42 0 -17 -44 -60 -84 -80 -74 -38 -236 15 -289 95 -39 58 -39 114 2
197 29 58 71 102 89 92 4 -3 16 -1 27 4 29 12 123 0 177 -23z m2925 1 c14 -12
16 -12 8 1 -6 11 -3 10 12 -2 11 -10 24 -18 30 -18 33 0 93 -136 61 -137 -21
-2 -232 -63 -248 -73 -12 -7 -11 -14 4 -43 18 -32 21 -34 65 -29 50 4 81 25
81 53 0 12 12 21 37 28 20 6 40 8 45 5 4 -3 8 0 8 5 0 6 10 11 21 11 19 0 21
-4 16 -41 -3 -23 -16 -52 -29 -66 -39 -42 -123 -78 -206 -88 -101 -13 -199 87
-203 208 -2 49 9 90 22 82 5 -3 7 0 4 7 -3 7 14 28 36 47 69 57 195 83 236 50z
m-2114 -8 c5 -5 4 -44 -2 -87 -6 -44 -13 -106 -16 -139 -3 -33 -7 -78 -9 -100
-9 -102 -19 -171 -28 -182 -12 -14 -108 -6 -124 11 -8 8 -2 78 22 251 18 132
33 246 33 252 1 14 109 8 124 -6z m512 -61 c7 -6 18 -34 25 -63 27 -128 54
-217 63 -214 9 3 26 58 63 208 l17 67 72 7 c40 3 89 3 109 0 l36 -7 0 -244 0
-244 -76 0 -76 0 4 170 c2 94 1 170 -3 170 -3 0 -14 -30 -23 -67 -10 -38 -30
-113 -45 -168 l-28 -100 -60 -3 -59 -3 -42 143 c-23 79 -42 151 -42 160 0 9
-4 19 -9 22 -5 4 -7 -63 -3 -160 l5 -165 -72 3 -73 3 0 230 c0 127 1 237 1
245 1 12 21 16 101 18 66 3 106 0 115 -8z m1265 -5 c0 -5 -5 -28 -10 -50 -5
-22 -12 -65 -16 -95 -3 -30 -8 -59 -12 -64 -3 -6 -6 -19 -7 -30 -1 -12 -8 -49
-15 -83 -14 -69 -14 -69 -101 -78 -53 -6 -57 -5 -74 21 -10 16 -18 34 -18 41
0 7 -7 15 -15 18 -12 4 -12 8 -2 20 11 13 10 14 -1 10 -14 -5 -67 80 -61 98 1
5 -2 6 -8 2 -5 -3 -10 -2 -10 2 0 5 -16 33 -35 62 -20 30 -32 58 -27 63 4 4
29 10 54 12 25 2 51 7 58 11 14 9 12 11 48 -60 16 -33 39 -78 51 -99 16 -31
18 -42 8 -48 -7 -6 -1 -8 17 -6 25 3 29 7 31 43 5 84 18 183 25 195 4 7 22 14
40 16 19 2 35 5 36 7 8 8 44 1 44 -8z m-2160 -18 c58 -20 107 -55 123 -89 9
-18 13 -36 10 -42 -3 -5 -8 -23 -10 -40 -2 -17 -8 -57 -14 -89 -11 -61 -7 -77
18 -77 11 0 14 -6 9 -22 -3 -13 -6 -31 -6 -42 0 -17 -5 -18 -49 -12 -56 7 -96
25 -115 51 -10 14 -17 15 -32 7 -57 -30 -173 -14 -214 30 -22 24 -27 82 -9
120 21 46 58 63 139 63 41 0 89 -3 106 -7 28 -6 32 -4 37 18 9 49 -88 89 -112
47 -7 -14 -13 -15 -22 -6 -6 6 -17 9 -24 7 -16 -6 -95 14 -95 24 1 20 57 64
95 75 28 8 124 -1 165 -16z m1526 -55 c-2 -4 20 -5 50 -2 30 3 57 4 60 1 3 -3
9 -6 12 -7 45 -5 118 -79 111 -111 -1 -4 1 -16 6 -26 12 -28 0 -125 -18 -145
-10 -10 -14 -21 -11 -25 7 -6 -63 -53 -104 -68 -38 -15 -139 -14 -157 1 -8 7
-15 10 -15 6 0 -10 -53 26 -71 49 -9 10 -24 41 -34 68 -36 99 6 200 99 242 56
24 80 30 72 17z"/>
<path d="M6426 11948 c-3 -7 -15 -44 -29 -83 -43 -120 -67 -198 -67 -217 0
-16 10 -18 100 -18 76 0 102 3 106 14 3 7 -15 79 -40 160 -26 80 -46 149 -46
151 0 11 -21 4 -24 -7z"/>
<path d="M4537 11764 c-3 -3 -45 -16 -93 -29 -49 -12 -90 -27 -92 -34 -4 -12
36 -141 49 -155 4 -5 28 -2 56 8 26 8 79 26 118 38 55 18 73 29 83 51 19 40 7
85 -31 108 -31 18 -77 25 -90 13z"/>
<path d="M8468 9566 c-26 -7 -62 -24 -81 -39 -55 -41 -55 -42 -315 -422 -42
-60 -87 -126 -101 -146 -14 -20 -67 -97 -118 -170 -51 -74 -96 -138 -100 -144
-4 -5 -20 -28 -35 -50 -15 -22 -50 -71 -78 -110 -27 -38 -64 -95 -82 -125 -41
-70 -114 -178 -143 -210 -20 -21 -109 -150 -350 -500 -28 -41 -68 -99 -88
-127 -20 -29 -37 -55 -37 -58 0 -10 375 -175 397 -175 7 0 59 62 115 138 56
75 187 252 292 392 344 462 471 633 566 768 52 74 115 159 139 189 117 147
282 378 305 428 39 80 51 150 36 205 -29 108 -200 191 -322 156z"/>
<path d="M5530 8220 c-44 -23 -99 -77 -179 -173 -34 -41 -75 -80 -92 -87 -32
-14 -36 -22 -16 -38 18 -15 197 -25 229 -13 66 25 128 126 131 213 2 44 7 57
30 76 15 13 25 28 21 33 -9 16 -87 9 -124 -11z"/>
<path d="M7879 7813 c-35 -48 -141 -191 -236 -318 -95 -126 -173 -235 -173
-242 0 -27 110 -48 250 -48 126 0 139 2 192 27 77 36 150 106 179 171 28 65
30 176 5 259 -20 66 -117 232 -138 236 -8 2 -41 -34 -79 -85z"/>
<path d="M6045 6175 c-15 -19 -25 -41 -23 -49 4 -18 235 -286 247 -286 4 0 20
16 34 37 18 25 23 41 17 53 -9 17 -239 280 -245 280 -2 0 -16 -16 -30 -35z"/>
<path d="M5913 5987 c-13 -18 -23 -37 -23 -41 0 -5 15 -25 33 -45 17 -21 50
-59 72 -86 80 -100 133 -155 145 -154 3 0 17 18 32 39 l28 40 -98 111 c-53 62
-107 125 -120 140 -30 37 -42 36 -69 -4z"/>
<path d="M5785 5800 l-27 -39 33 -43 c18 -24 43 -54 55 -68 13 -14 50 -58 85
-97 34 -40 65 -73 69 -73 9 0 60 65 60 77 0 9 -52 74 -137 171 -31 35 -64 74
-75 87 -11 14 -23 25 -27 25 -5 0 -21 -18 -36 -40z"/>
<path d="M6303 5693 c-23 -32 -73 -101 -112 -153 -39 -52 -71 -98 -71 -102 0
-11 89 -10 130 2 53 15 127 65 150 102 28 47 27 125 -3 169 -12 19 -30 35 -38
37 -9 2 -32 -20 -56 -55z"/>
<path d="M5655 5613 c-13 -21 -21 -41 -17 -45 9 -9 151 -68 163 -68 20 0 6 26
-47 86 -31 35 -60 64 -64 64 -5 0 -21 -17 -35 -37z"/>
<path d="M3467 1893 c-9 -2 -15 -9 -12 -14 9 -14 22 -11 29 6 3 8 4 14 3 14
-1 -1 -10 -3 -20 -6z"/>
<path d="M3773 1672 c-28 -3 -63 -27 -52 -36 2 -2 34 -20 72 -40 l67 -38 0 40
c0 54 -30 80 -87 74z"/>
<path d="M8877 1623 c-10 -12 -17 -36 -17 -53 0 -27 3 -31 18 -25 9 5 25 8 34
9 9 0 14 5 11 10 -4 5 1 7 10 3 10 -3 17 -3 17 1 0 5 14 15 32 23 l31 15 -23
22 c-31 29 -90 26 -113 -5z"/>
<path d="M4163 1448 c-27 -30 -53 -93 -51 -123 3 -31 55 -60 90 -52 56 14 89
136 49 176 -27 27 -62 27 -88 -1z"/>
<path d="M7799 1229 c-7 -4 -16 -6 -20 -3 -4 2 -10 -5 -14 -16 -3 -11 -10 -20
-14 -20 -5 0 -6 -11 -3 -25 5 -29 3 -28 35 -16 13 5 39 12 59 15 65 10 70 15
45 41 -24 24 -68 37 -88 24z"/>
<path d="M5260 990 c-11 -7 -12 -15 -4 -37 9 -25 14 -28 61 -29 45 -2 52 1 62
22 21 47 16 54 -46 54 -32 0 -65 -4 -73 -10z"/>
<path d="M6940 1072 c-32 -11 -39 -29 -35 -93 8 -112 12 -119 78 -119 55 0 78
27 76 93 -2 55 -23 116 -43 119 -33 4 -63 4 -76 0z"/>
</g>
</svg>
